<?xml version="1.0" encoding="iso-8859-1"?>
<!-- Generator: Adobe Illustrator 19.0.0, SVG Export Plug-In . SVG Version: 6.00 Build 0)  -->
<svg version="1.1" id="Capa_1" xmlns="http://www.w3.org/2000/svg" xmlns:xlink="http://www.w3.org/1999/xlink" x="0px" y="0px"
	 viewBox="0 0 511.998 511.998" style="enable-background:new 0 0 511.998 511.998;" xml:space="preserve">
<g>
	<path style="fill:#FBBB8C;" d="M226.536,111.997c0.869,10.527,3.977,21.131,10.581,29.375c1.856,2.317,3.975,4.25,5.712,6.6
		c1.592,2.155,4.044,3.502,5.583,5.709c1.68,2.409,2.014,5.469,2.856,8.282c1.903,6.355,6.735,11.767,12.834,14.374
		c6.099,2.608,13.35,2.362,19.259-0.652c6.173-3.15,10.539-8.891,14.686-14.444c3.138-4.201,6.445-8.254,8.916-12.889
		c2.228-4.178,6.361-6.657,9.702-9.882c3.24-3.127,6.449-7.491,4.986-11.749c-0.995-2.894-3.924-4.786-4.956-7.668
		c-2.034-5.681,4.117-12.069,1.741-17.616c-1.376-3.211-5.272-4.989-6.108-8.381c-1.237-5.013,4.992-10.061,2.881-14.773
		c-1.354-3.022-5.255-3.715-8.553-4.003c-12.877-1.123-25.754-2.247-38.631-3.37c-6.576-0.574-13.244-1.144-19.742,0.017
		c-4.233,0.756-7.934,2.687-11.927,4.124c-2.985,1.074-5.379,3.527-7.37,5.909c-1.954,2.338-1.542,5.091-1.838,8.035
		C226.379,96.631,225.903,104.333,226.536,111.997z"/>
	<path style="fill:#FBBB8C;" d="M207.43,217.357c-4.607-0.415-9.22,1.072-13.252,3.338c-4.401,2.473-8.318,5.959-10.767,10.373
		s-3.324,9.799-1.83,14.621s5.52,8.915,10.458,9.959c2.776,0.587,5.78,0.258,8.344,1.473c2.247,1.064,3.802,3.147,5.426,5.03
		s3.599,3.735,6.068,4.028c2.279,0.27,4.468-0.846,6.492-1.929c2.503-1.339,5.006-2.679,7.508-4.018
		c3.139-1.68,6.278-3.359,9.417-5.039c3.818-2.043,7.999-4.528,9.108-8.714c1.009-3.808-1.066-7.973-4.289-10.239
		s-7.349-2.896-11.283-2.694c-2.427,0.125-5.202,0.043-6.429-2.455c-0.902-1.836-0.87-3.812-2.026-5.639
		C217.568,221.011,212.696,217.831,207.43,217.357z"/>
	<path style="fill:#FBBB8C;" d="M327.117,233.134c-3.615,2.859-6.451,6.564-9.672,9.86s-7.055,6.296-11.589,7.126
		c-3.152,0.577-6.417,0.06-9.588,0.526c-5.841,0.859-10.644,4.888-15.106,8.755c-2.149,1.862-4.519,4.497-3.531,7.163
		c0.846,2.281,3.78,3.056,6.178,2.644c2.398-0.411,4.592-1.645,6.986-2.079c2.394-0.434,5.33,0.276,6.241,2.532
		c0.957,2.372-0.886,5.021-3.092,6.315s-4.816,1.806-6.959,3.203s-3.739,4.286-2.456,6.498c0.683,1.176,1.992,1.832,3.273,2.289
		c5.724,2.04,12.384,1.241,17.464-2.093c6.099-4.003,9.494-10.989,14.7-16.099c6.316-6.199,14.932-9.326,23.166-12.57
		c8.234-3.245,16.723-7.052,22.12-14.066c1.952-2.537,3.48-5.807,2.577-8.878c-1.836-6.244-9.454-5.753-14.558-6.316
		c-5.588-0.616-11.041-1.227-16.55,0.327C333.246,229.25,329.951,230.891,327.117,233.134z"/>
	<path style="fill:#FBBB8C;" d="M222.256,416.465c-0.212,2.227-0.342,4.73,1.121,6.422c1.266,1.464,3.349,1.861,5.274,2.064
		c3.017,0.318,6.061,0.381,9.088,0.187c1.953-0.125,4.023-0.408,5.523-1.664c1.954-1.636,2.391-4.42,2.697-6.951
		c0.375-3.104,0.749-6.208,1.124-9.312c0.286-2.367,0.478-5.056-1.107-6.837c-1.239-1.393-3.219-1.808-5.063-2.076
		c-2.752-0.4-5.526-0.646-8.305-0.737c-2.022-0.067-4.766-0.491-6.66,0.432c-2.996,1.46-2.554,6.52-2.815,9.264
		C222.841,410.327,222.548,413.396,222.256,416.465z"/>
	<path style="fill:#FBBB8C;" d="M288.788,413.269c-0.025,2.382-0.02,4.886,1.135,6.97c1.305,2.354,3.906,3.762,6.55,4.268
		c2.644,0.506,5.367,0.231,8.044-0.046c3.717-0.384,7.872-1.004,10.119-3.989c1.42-1.887,1.765-4.361,1.856-6.721
		c0.137-3.512-0.183-7.041-0.947-10.471c-0.405-1.816-1.015-3.729-2.485-4.869c-1.639-1.272-3.907-1.258-5.975-1.109
		c-5.055,0.362-11.361,0.691-16.045,2.798c-1.779,0.8-2.085,2.071-2.159,3.92C288.761,407.095,288.82,410.19,288.788,413.269z"/>
</g>
<g>
	<path style="fill:#EFA878;" d="M295.939,76.52c-3.854,2.527-4.901,7.841-4.133,12.385s2.946,8.719,4.206,13.151
		c3.664,12.889-1.367,27.794-12.094,35.824c-10.727,8.031-26.445,8.661-37.781,1.515c-1.378-0.868-2.718-1.851-4.272-2.339
		c-1.554-0.489-3.418-0.383-4.596,0.741c-1.333,1.271-1.369,3.481-0.549,5.13s2.311,2.851,3.805,3.928
		c3.251,2.342,6.738,4.322,10.386,5.975c3.4,1.541,7.297,2.546,10.365,4.757c2.53,1.823,4.504,4.715,4.401,7.831
		c-0.097,2.943-1.99,5.78-1.343,8.652c0.579,2.571,3.157,4.336,5.773,4.658s5.238-0.536,7.624-1.655
		c5.992-2.811,11.075-7.301,15.348-12.355c2.164-2.56,4.138-5.274,6.013-8.051c1.501-2.224,2.786-4.97,5.096-6.483
		c1.631-1.068,3.57-1.583,5.229-2.63c2.865-1.809,5.504-4.108,7.921-6.472c2.041-1.997,3.976-4.199,5.045-6.847
		s1.151-5.83-0.386-8.236c-2.319-3.63-7.895-5.166-8.377-9.447c-0.556-4.946,6.523-8.646,5.286-13.467
		c-0.889-3.463-5.53-4.659-6.957-7.938c-0.961-2.208-0.207-4.766,0.755-6.974c1.808-4.147,3.684-10.671-2.42-12.324
		c-1.856-0.503-4.041-0.436-5.95-0.68C301.471,74.804,298.43,74.886,295.939,76.52z"/>
	<path style="fill:#EFA878;" d="M187.182,232.857c3.592,0.209,6.069,3.496,8.633,6.019c2.987,2.939,6.819,5.175,10.987,5.604
		c1.497,0.154,3.02,0.076,4.497,0.366c1.957,0.385,3.726,1.395,5.455,2.39c3.008,1.73,6.015,3.461,9.023,5.191
		c0.984,0.566,2.047,1.228,2.383,2.312c0.495,1.599-0.823,3.149-2.08,4.254c-2.338,2.056-4.853,3.909-7.509,5.533
		c-2.072,1.267-4.402,2.43-6.815,2.155c-2.13-0.242-3.979-1.576-5.521-3.065c-2.698-2.605-5.012-6.035-8.766-7.187
		c-3.437-1.055-7.178-0.414-10.625-1.61c-5.298-1.838-7.28-8.269-7.177-13.442C179.751,237.264,182.534,232.587,187.182,232.857z"/>
	<path style="fill:#EFA878;" d="M315.906,256.047c8.147-6.688,20.91-6.875,27.316-15.245c2.404-3.142,3.619-7.15,6.429-9.935
		c1.985-1.967,4.742-3.19,7.537-3.136c2.794,0.053,5.575,1.444,7.135,3.763c2.566,3.815,1.408,9.111-1.106,12.96
		c-4.845,7.419-13.595,11.149-21.938,14.133c-8.344,2.984-17.204,5.889-23.162,12.448c-2.925,3.22-4.977,7.158-7.93,10.353
		c-5.23,5.658-13.269,8.583-20.912,7.609c-2.824-0.36-7.018-2.286-5.672-5.849c1.231-3.257,6.037-4.08,8.784-5.499
		c2.224-1.148,4.093-2.646,5.937-4.319c2.591-2.351,5.524-4.354,8.024-6.786C309.746,263.238,312.219,259.074,315.906,256.047z"/>
</g>
<path style="fill:#009362;" d="M290.105,10.941c-6.934-2.586-13.957-6.419-21.271-5.288c-7.002,1.083-12.58,6.614-16.079,12.775
	s-5.396,13.085-8.25,19.57c-2.855,6.485-6.998,12.837-13.35,15.976c-5.422,2.679-11.729,2.681-17.614,4.077
	s-12.087,5.118-12.955,11.103c-0.508,3.502,0.993,7.057,3.249,9.782c2.257,2.726,5.216,4.763,8.135,6.764
	c3.986,2.732,9.391,5.481,13.281,2.615c2.507-1.847,3.126-5.252,4.445-8.073c2.132-4.563,6.395-7.875,11.063-9.765
	s9.749-2.499,14.775-2.824c24.374-1.575,49.134,3.245,71.137,13.849c5.566,2.682,11.677,6.85,11.775,13.028
	c0.048,3.06-1.474,6.077-0.928,9.089c0.768,4.24,5.411,6.765,9.713,7.01c6.577,0.375,13.207-3.442,16.186-9.318
	s2.139-13.48-2.051-18.563c-3.946-4.788-10.242-7.152-14.227-11.908c-4.923-5.877-5.411-14.232-4.912-21.883
	s1.724-15.528-0.575-22.842c-2.311-7.351-8.485-13.093-15.657-15.657c-3.639-1.301-7.711-1.846-11.557-1.333
	c-3.273,0.436-6.015,2.406-9.157,3.291C300.322,13.812,294.822,12.7,290.105,10.941z"/>
<path style="fill:#017C50;" d="M309.805,10.322c-3.286,0.483-6.562,1.459-9.285,3.361c-2.724,1.901-4.849,4.815-5.293,8.107
	c-0.556,4.119,1.483,8.076,3.029,11.935c1.545,3.859,2.554,8.524,0.21,11.956c-2.53,3.706-7.69,4.236-12.174,4.412
	c-4.831,0.19-9.662,0.379-14.493,0.569c-1.552,0.061-3.348,0.253-4.195,1.555c-2.586,3.977,3.463,3.22,4.143,5.391
	c0.452,1.442-0.459,3.036-1.745,3.828c-1.287,0.792-2.855,0.953-4.365,1.019c-6.319,0.275-12.637-0.778-18.959-0.569
	c-7.981,0.263-15.886,2.577-22.749,6.659c-3.058,1.819-5.982,4.061-7.804,7.117s-2.361,7.059-0.645,10.175
	c1.716,3.116,6.005,4.796,9.095,3.034c3.055-1.741,3.842-5.709,5.774-8.647c3.14-4.775,9.175-6.608,14.773-7.759
	c22.817-4.692,46.776-3.726,69.142,2.786c5.038,1.467,10.095,3.263,14.238,6.482s7.288,8.095,7.275,13.342
	c-0.006,2.618-0.775,5.29-0.072,7.812c1.015,3.639,4.848,5.835,8.579,6.432c8.127,1.301,16.815-3.871,19.545-11.636
	c2.73-7.764-0.81-17.236-7.963-21.307c-2.705-1.54-5.822-2.374-8.259-4.311c-4.436-3.526-1.817-7.959-2.588-12.621
	c-1.484-8.975-3.146-17.92-4.985-26.829c-1.1-5.332-2.295-11.778-5.7-16.229c-2.75-3.595-8.396-4.938-12.576-5.758
	C317.829,9.855,313.769,9.739,309.805,10.322z"/>
<path style="fill:#884637;" d="M323.529,79.666c5.115,0.837,9.379,4.801,11.44,9.557c2.061,4.755,2.138,10.182,1.154,15.27
	c-0.983,5.088-2.97,9.919-4.945,14.711c-0.95,2.305-1.934,4.664-3.631,6.49c-1.698,1.826-4.288,3.035-6.701,2.412
	c-3.168-0.818-4.862-4.444-4.824-7.715s1.337-6.375,2.121-9.551s0.973-6.804-0.947-9.453c-0.818-1.129-1.955-1.982-2.909-2.998
	c-2.461-2.621-3.634-6.398-3.089-9.952s2.795-6.807,5.928-8.57C320.118,78.182,320.14,79.111,323.529,79.666z"/>
<path style="fill:#77382D;" d="M326.617,102.664c-1.34,5.08-2.68,10.16-4.02,15.241c-0.295,1.119-0.593,2.274-0.434,3.421
	c0.159,1.146,0.892,2.294,2.014,2.576c1.749,0.44,3.236-1.276,4.164-2.823c2.729-4.546,4.867-9.446,6.343-14.538
	c2.088-7.201,3.319-19.378-4.581-23.924c-4.53-2.606-11.072,3.599-7.178,7.837c1.568,1.706,3.525,2.919,4.23,5.262
	C327.838,97.986,327.202,100.447,326.617,102.664z"/>
<path style="fill:#FFC94E;" d="M246.115,39.92c-2.314,0.627-4.661,1.345-6.594,2.763s-3.407,3.675-3.283,6.069
	c0.152,2.943,2.678,5.324,5.465,6.278c2.788,0.954,5.815,0.786,8.759,0.664c27.766-1.153,55.734,2.74,82.13,11.43
	c2.523,0.831,5.245,1.71,7.777,0.906c3.413-1.083,5.274-5.065,4.901-8.626c-0.283-2.698-1.649-6.128-3.893-7.813
	c-1.905-1.431-4.743-2.118-6.882-3.163c-6.558-3.203-13.402-5.816-20.417-7.826c-14.095-4.038-28.885-5.644-43.518-4.71
	C262.305,36.419,254.1,37.757,246.115,39.92z"/>
<path style="fill:#F2AE40;" d="M320.727,43.671c-6.208-2.788-13.483-4.801-19.691-2.014c-3.859,1.732-6.726,5.086-9.233,8.492
	c-1.174,1.596-2.355,3.437-2.088,5.4c0.212,1.559,1.336,2.875,2.675,3.7s2.887,1.234,4.411,1.622
	c11.618,2.962,23.371,5.393,35.211,7.284c2.928,0.468,6.201,0.827,8.612-0.899c1.637-1.172,2.561-3.139,2.895-5.125
	c0.335-1.985,0.146-4.017-0.043-6.022c-0.196-2.078-0.566-5.037-2.888-5.862c-1.637-0.581-3.77-0.116-5.553-0.581
	C330.009,48.356,325.437,45.786,320.727,43.671z"/>
<g>
	<path style="fill:#009362;" d="M235.264,165.382c5.711,17.151,4.674,35.717,3.573,53.76c-0.24,3.934-0.544,8.069-2.7,11.368
		c-2.156,3.3-6.834,5.303-10.171,3.204c-2.836-1.784-3.54-5.551-5.443-8.309c-2.219-3.215-6.094-4.974-9.964-5.503
		c-3.591-0.49-7.208-0.043-10.772,0.446c-2.649,0.364-6.041,1.454-8.332-0.535c-3.967-3.445,2.798-10.898,4.845-13.989
		c6.719-10.141,14.633-19.489,23.524-27.792c2.433-2.272,4.94-4.466,7.514-6.576C228.089,170.841,235.368,165.692,235.264,165.382z"
		/>
	<path style="fill:#009362;" d="M251.073,212.355c0.698-2.722,1.643-5.763,4.156-7.021c1.931-0.968,4.235-0.575,6.355-0.161
		c7.772,1.519,15.543,3.037,23.315,4.556c2.522,0.493,5.496,0.862,7.335-0.933c1.135-1.108,1.504-2.76,1.821-4.314
		c2.542-12.467,5.084-24.934,7.626-37.4c0.187-0.916,0.346-1.963-0.222-2.706c-0.518-0.677-1.504-0.848-2.328-0.632
		c-0.825,0.216-1.527,0.745-2.2,1.268c-4.551,3.537-8.901,7.399-13.943,10.192s-10.985,4.461-16.605,3.181
		c-3.683-0.839-6.925-2.868-9.964-5.035c-1.655-1.18-5.725-5.324-6.453-1.713c-0.801,3.975,0.252,9.207,0.363,13.278
		c0.118,4.345,0.236,8.69,0.354,13.034c0.066,2.439,0.132,4.878,0.199,7.318C250.937,207.346,251.589,210.353,251.073,212.355z"/>
	<path style="fill:#009362;" d="M321.541,164.661c18.98,14.037,35.146,31.862,47.27,52.118c1.068,1.784,2.118,3.619,2.601,5.641
		c0.484,2.022,0.335,4.287-0.855,5.992c-19.55-5.671-42.044,0.48-55.988,15.31c-1.285,1.367-2.536,2.827-4.181,3.73
		s-3.823,1.126-5.324,0c-1.66-1.245-1.933-3.589-2.031-5.661c-1.278-27.012,3.529-54.295,13.96-79.244
		C317.683,160.895,320.103,163.598,321.541,164.661z"/>
	<path style="fill:#009362;" d="M242.328,254.22c-0.396,1.316-0.794,2.718-0.427,4.043c0.419,1.511,1.732,2.576,2.972,3.535
		c4.752,3.677,9.503,7.354,14.254,11.031c2.12,1.641,4.348,3.331,6.982,3.831c2.718,0.516,5.553-0.329,7.923-1.755
		s4.353-3.402,6.311-5.357c-1.883-0.953-2.492-3.509-1.833-5.514s2.269-3.543,3.933-4.842s3.466-2.475,4.776-4.13
		c2.7-3.413,2.804-8.135,2.787-12.487c-0.008-2.055-0.089-4.311-1.458-5.844c-1.191-1.334-3.065-1.779-4.82-2.124
		c-8.608-1.696-17.393-2.753-26.167-2.99c-6.769-0.183-9.003,1.898-10.929,8.3C245.196,244.684,243.762,249.452,242.328,254.22z"/>
	<path style="fill:#009362;" d="M222.599,277.253c-0.219,1.183-0.558,2.532-1.638,3.062c-0.617,0.303-1.34,0.258-2.025,0.206
		c-2.897-0.218-5.794-0.436-8.691-0.655c-0.149-3.749-0.214-7.803,1.944-10.872c1.741-2.476,7.464-6.854,10.589-4.77
		C226.242,266.535,223.189,274.069,222.599,277.253z"/>
	<path style="fill:#009362;" d="M246.786,281.352c2.521-4.054-4.245-9.845-8.061-6.892c-1.352,1.047-3.08,4.153-1.379,5.504
		C237.949,280.443,246.595,281.66,246.786,281.352z"/>
	<path style="fill:#009362;" d="M312.333,280.453c-0.586,1.012-1.151,2.131-1.013,3.291c0.237,1.986,2.332,3.128,4.193,3.86
		c2.341,0.92,4.73,1.718,7.153,2.392c1.402,0.389,2.963,0.723,4.258,0.06c2.117-1.083,2.245-4.009,2.081-6.382
		c-0.224-3.232,0.758-16.374-4.443-16C319.596,268.03,314.503,276.706,312.333,280.453z"/>
</g>
<g>
	<path style="fill:#884637;" d="M281.391,395.777c10.969,0.553,21.975,0.357,32.917-0.588c2.436-0.21,5.189-0.639,6.563-2.661
		c1.269-1.87,0.847-4.364,0.375-6.574c-0.785-3.674-1.57-7.348-2.355-11.022c-0.355-1.66-0.782-3.445-2.079-4.54
		c-1.533-1.293-3.763-1.205-5.761-1.033c-5.185,0.446-10.36,0.992-15.524,1.638c-4.469,0.558-9.448,0.715-13.716,2.246
		c-6.023,2.162-6.636,8.028-6.888,13.669C274.686,392.252,275.425,395.476,281.391,395.777z"/>
	<path style="fill:#884637;" d="M259.915,393.75c-1.135,1.346-3.114,1.514-4.874,1.566c-11.275,0.335-22.568,0.074-33.816-0.782
		c-3.203-0.244-6.922-0.86-8.444-3.689c-0.897-1.666-0.757-3.675-0.592-5.56c0.327-3.748,0.654-7.495,0.98-11.243
		c6.762,0.742,13.524,1.483,20.287,2.225c4.311,0.473,8.631,0.942,12.97,1.054c3.201,0.082,8.004-1.276,10.98,0.008
		c2.278,0.983,2.759,3.524,3.009,5.749C260.73,385.883,261.924,391.368,259.915,393.75z"/>
</g>
<g>
	<path style="fill:#77382D;" d="M295.318,391.664c-0.524,1.141-1.146,2.371-0.848,3.591c0.281,1.149,1.348,1.973,2.484,2.303
		c1.136,0.33,2.345,0.254,3.526,0.175c3.156-0.211,6.311-0.422,9.467-0.632c3.663-0.245,7.793-0.728,10.017-3.648
		c1.624-2.132,1.765-5.006,1.841-7.684c0.072-2.546,0.144-5.093,0.216-7.639c0.062-2.191,0.047-4.608-1.391-6.262
		c-1.253-1.442-3.274-1.917-5.171-2.151c-4.375-0.542-15.81-1.185-17.696,4.21c-0.736,2.106-0.062,4.758-0.08,6.934
		C297.652,384.579,296.871,388.279,295.318,391.664z"/>
	<path style="fill:#77382D;" d="M236.439,387.975c-0.915,1.99-2.304,4.228-1.313,6.181c0.842,1.661,2.967,2.117,4.818,2.324
		c6.376,0.712,12.831,0.711,19.207-0.004c0.952-2.734,1.914-5.512,2.071-8.403s-0.598-5.96-2.653-7.999
		c-1.575-1.563-3.744-2.373-5.899-2.903c-3.364-0.827-6.87-1.074-10.317-0.726c-2.693,0.271-4.93-0.023-4.818,2.905
		C237.652,382.42,237.767,385.084,236.439,387.975z"/>
</g>
<g>
	<path style="fill:#017C50;" d="M311.007,184.147c7.813-0.995,15.812,3.007,20.535,9.309c4.724,6.302,6.369,14.583,5.468,22.407
		c-0.202,1.75-0.523,3.502-0.425,5.261c0.098,1.759,0.674,3.575,1.984,4.753c1.629,1.464,4.001,1.658,6.189,1.778
		c6.506,0.357,13.012,0.714,19.518,1.071c1.11,0.061,2.273,0.112,3.28-0.359c1.903-0.889,2.552-3.265,2.678-5.361
		c0.352-5.838-1.664-11.626-4.697-16.628c-3.032-5.001-7.048-9.322-11.07-13.569c-6.184-6.53-12.513-12.997-19.676-18.467
		c-3.585-2.737-7.377-5.218-11.405-7.257c-3.398-1.72-6.623-3.528-8.698,0.676C312.267,172.66,311.283,178.742,311.007,184.147z"/>
	<path style="fill:#017C50;" d="M272.934,204.964c1.978,2.767,5.633,3.64,8.966,4.314c3.423,0.692,7.429,1.236,10.008-1.118
		c1.576-1.438,2.19-3.622,2.733-5.686c3.452-13.118,6.905-26.236,10.357-39.355c-2.017-0.807-4.177,0.625-5.877,1.978
		c-6.214,4.946-12.635,9.712-18.677,14.867c-4.179,3.566-5.679,8.603-7.503,13.64C271.621,197.253,270.624,201.497,272.934,204.964z
		"/>
	<path style="fill:#017C50;" d="M262.537,269.049c0.013,2.291,0.228,4.894,2.024,6.316c2.057,1.629,5.045,0.857,7.529,0.01
		c2.857-0.974,6.197-2.517,6.533-5.517c0.296-2.65-2.042-5.195-1.361-7.773c0.427-1.618,1.944-2.711,3.484-3.366
		c1.54-0.654,3.213-1.017,4.643-1.886c2.284-1.386,3.677-3.924,4.266-6.531s0.47-5.314,0.348-7.983
		c-0.098-2.149-0.353-4.603-2.099-5.861c-1.081-0.778-2.487-0.893-3.816-0.981c-4.833-0.321-9.747-0.941-14.59-0.97
		c-4.082-0.024-3.879,3.792-4.506,7.151C263.307,250.699,262.537,259.857,262.537,269.049z"/>
	<path style="fill:#017C50;" d="M229.759,187.592c1.05-1.239,2.166-2.476,3.605-3.229s3.281-0.934,4.648-0.058
		c1.638,1.05,2.112,3.195,2.376,5.122c1.668,12.185,0.586,24.738-3.141,36.458c-0.741,2.329-1.626,4.696-3.302,6.476
		c-1.675,1.78-4.328,2.846-6.625,2.009c-3.608-1.314-4.279-5.668-5.452-8.799c-1.219-3.253-3.372-5.608-5.29-8.416
		c-3.952-5.786,2-13.44,5.094-18.436C224.087,194.816,226.791,191.093,229.759,187.592z"/>
</g>
<g>
	<path style="fill:#884637;" d="M302.409,240.195c0.172,2.301,0.363,4.759-0.757,6.776c-1.031,1.856-3.037,3.009-5.103,3.495
		c-2.067,0.486-4.22,0.389-6.341,0.289c-0.547-29.88,4.258-59.85,14.118-88.061c0.525-1.501,1.144-3.103,2.476-3.973
		c1.742-1.138,4.177-0.579,5.782,0.747c1.652,1.365,3.351,3.649,2.973,5.74c-0.453,2.509-2.283,5.305-3.208,7.713
		c-1.999,5.203-3.715,10.514-5.142,15.901c-2.855,10.775-4.557,21.857-5.06,32.993C301.868,227.94,301.953,234.081,302.409,240.195z
		"/>
	<path style="fill:#884637;" d="M236.468,223.623c-0.912,3.772-1.946,7.991,0.029,11.332c1.32,2.233,3.72,3.557,5.64,5.301
		c1.792,1.628,3.427,4.306,2.364,6.763c1.773-3.368,2.397-6.751,3.233-10.405c0.614-2.688,1.56-4.751,4.464-5.384
		c4.624-1.008,10.354,0.44,15.013,0.862c5.312,0.481,10.624,0.963,15.936,1.444c1.966,0.178,4.238,0.245,5.572-1.209
		c0.923-1.006,1.112-2.463,1.257-3.82c0.45-4.194,0.899-8.388,1.349-12.582c0.172-1.599,0.32-3.32-0.473-4.719
		c-1.237-2.184-4.133-2.637-6.634-2.85c-7.941-0.676-15.883-1.351-23.825-2.027c-2.14-0.182-4.376-0.395-6.186-1.551
		c-3.734-2.383-2.188-8.731-2.355-12.496c-0.453-10.203-2.242-20.294-4.027-30.35c-0.141-0.792-0.34-1.674-1.019-2.105
		c-1.025-0.651-2.328,0.153-3.266,0.923c-2.506,2.056-6.799,4.066-6.413,7.7c0.476,4.485,1.668,8.914,2.133,13.427
		c0.925,8.982,0.866,18.065-0.173,27.035C238.509,213.893,237.362,218.704,236.468,223.623z"/>
	<path style="fill:#884637;" d="M222.358,282.588c4.482-0.362,9.008-0.164,13.441,0.59c0.957-1.721,1.923-3.46,2.472-5.352
		s0.654-3.975-0.099-5.795c-0.44-1.064-1.153-1.993-1.927-2.846c-1.503-1.655-3.271-3.065-5.213-4.172
		c-3.069-1.75-3.218-0.659-4.389,2.333C224.715,272.268,223.276,277.382,222.358,282.588z"/>
</g>
<g>
	<path style="fill:#77382D;" d="M264.696,220.285c-1.791,0.724-3.692,1.289-5.212,2.481c-1.52,1.192-2.585,3.242-1.946,5.065
		c0.537,1.532,2.069,2.454,3.523,3.178c5.293,2.637,11.045,4.353,16.918,5.046c2.292,0.271,4.709,0.368,6.811-0.586
		c2.149-0.976,3.709-2.961,4.658-5.122c0.948-2.161,1.355-4.515,1.753-6.841c0.377-2.2,0.755-4.425,0.594-6.651
		s-0.919-4.487-2.517-6.045c-3.069-2.991-8.859-3.597-11.869-0.408C273.544,214.496,270.059,218.118,264.696,220.285z"/>
	<path style="fill:#77382D;" d="M299.264,202.877c-2.68,12.495-4.034,25.562-1.285,38.131c0.46,2.103,0.894,5.675,3.85,5.499
		c3.127-0.187,2.369-4.196,2.228-6.31c-0.489-7.31-0.491-14.649-0.007-21.959c0.716-10.818,2.484-21.567,5.264-32.046
		c1.332-5.02,2.894-9.952,4.783-14.784c0.864-2.209,5.103-8.273,1.169-9.495c-0.991-0.308-2.093,0.163-2.814,0.91
		c-0.721,0.747-1.138,1.728-1.533,2.688c-4.487,10.9-8.106,22.158-10.812,33.631C299.814,200.379,299.532,201.625,299.264,202.877z"
		/>
</g>
<g>
	<path style="fill:#333333;" d="M197.836,476.073c-0.87,3.18-1.125,6.986,1.143,9.379c1.684,1.777,4.307,2.263,6.752,2.388
		c6.942,0.356,13.981-1.479,19.865-5.178c5.885-3.7,10.589-9.247,13.277-15.658c0.348-0.83,0.669-1.715,0.561-2.608
		c-0.206-1.714-1.97-2.888-3.688-3.057c-1.718-0.168-3.409,0.415-5.058,0.924s-3.414,0.954-5.083,0.511
		c-3.57-0.947-4.396-4.751-6.694-7.105c-2.701-2.767-5.896,0.18-8.35,1.991C204.447,462.172,199.844,468.731,197.836,476.073z"/>
	<path style="fill:#333333;" d="M328.531,457.567c-5.314-3.749-12.143-7.602-17.439-1.489c-2.238,2.583-5.108,3.956-8.658,3.928
		c-1.73-0.014-3.631-0.322-5.05,0.667c-1.942,1.354-1.793,4.288-0.998,6.517c2.619,7.338,9.509,12.202,16.275,16.064
		c3.378,1.929,6.867,3.749,10.633,4.724s7.867,1.053,11.457-0.446c3.59-1.499,6.562-4.744,7.115-8.595
		c0.606-4.221-1.638-8.305-4.119-11.772C335.154,463.541,332.173,460.136,328.531,457.567z"/>
</g>
<g>
	<path style="fill:#2B2B2B;" d="M240.332,461.029c-1.836-0.888-5.375-0.105-7.35,0.337c-2.517,0.564-5.35,1.354-7.472,2.868
		c-1.749,1.248-3.017,3.192-4.719,4.558c-5.153,4.135-10.663,7.849-16.39,11.139c-1.23,0.707-2.502,1.418-3.408,2.51
		s-1.373,2.675-0.765,3.957c0.813,1.713,3.031,2.136,4.926,2.207c14.046,0.524,28.115-7.002,35.476-18.977
		c0.85-1.384,1.633-2.876,1.751-4.496S241.794,461.736,240.332,461.029z"/>
	<path style="fill:#2B2B2B;" d="M321.101,469.014c4.942,2.507,10.278,4.566,14.214,8.467c1.017,1.008,1.949,2.173,2.319,3.557
		s0.062,3.024-1.053,3.923c-1.145,0.924-2.775,0.862-4.238,0.696c-11.748-1.329-23.037-6.442-31.786-14.393
		c-1.724-1.566-3.414-3.346-4.018-5.596c-0.604-2.249,0.268-5.052,2.442-5.888c2.356-0.906,4.616,0.674,6.907,0.977
		c1.608,0.213,3.358-0.583,4.811,0.248c1.686,0.964,3.031,3.29,4.656,4.517C317.145,466.875,319.102,468.001,321.101,469.014z"/>
</g>
<g>
	<path style="fill:#FFFFFF;" d="M220.266,442.672c-0.244,3.748-0.462,7.661,1.031,11.108c1.574,3.633,5.076,6.365,8.984,6.999
		c3.909,0.634,8.098-0.855,10.724-3.819c3.109-3.509,3.842-8.481,4.187-13.157c0.306-4.148,0.414-8.311,0.322-12.47
		c-0.041-1.858-0.185-3.88-1.428-5.261c-1.391-1.546-3.686-1.789-5.761-1.929c-3.26-0.22-6.521-0.44-9.781-0.66
		c-1.763-0.119-5.773-1.229-6.959,0.468c-1.214,1.737-0.563,7.106-0.702,9.245C220.679,436.331,220.266,439.53,220.266,442.672z"/>
	<path style="fill:#FFFFFF;" d="M290.421,438.669c0.002,4.801,0.711,9.796,3.399,13.774s7.764,6.634,12.379,5.313
		c3.669-1.05,6.346-4.356,7.641-7.946c1.296-3.589,1.429-7.478,1.548-11.292c0.138-4.403,0.275-8.806,0.413-13.21
		c0.034-1.078,0.016-2.292-0.757-3.044c-0.79-0.77-2.038-0.735-3.138-0.65c-3.629,0.28-7.259,0.56-10.888,0.84
		c-2.423,0.187-5.922-0.174-8.087,1.173c-1.7,1.058-1.977,2.834-2.121,4.695C290.543,431.739,290.421,435.242,290.421,438.669z"/>
</g>
<g>
	<path style="fill:#EBEBEC;" d="M229.691,453.446c-0.393,2.168-0.671,4.727,0.9,6.271c1.958,1.923,5.338,0.822,7.408-0.98
		c4.916-4.279,6.424-11.176,7.656-17.576c0.549-2.852,1.1-5.76,0.743-8.642c-0.393-3.167-2.16-6.627-5.395-7.652
		c-2.907-0.921-5.721,0.104-6.636,2.966c-1.215,3.798-1.512,8.152-2.222,12.074C231.327,444.419,230.509,448.932,229.691,453.446z"
		/>
	<path style="fill:#EBEBEC;" d="M302.215,450.616c-0.19,2.065-0.288,4.411,1.14,5.914c1.587,1.671,4.472,1.436,6.321,0.06
		c1.849-1.376,2.878-3.576,3.694-5.731c1.514-3.999,2.55-8.18,3.08-12.423c0.37-2.96,0.486-6.014-0.338-8.881
		c-0.962-3.346-3.466-6.59-7.066-7.213c-2.958-0.512-4.556,0.743-4.912,3.615C303.127,434.068,302.964,442.451,302.215,450.616z"/>
</g>
<g>
	<path style="fill:#EFA878;" d="M233.502,417.157c-0.234,2.357-0.4,4.969,1.042,6.849c1.057,1.378,2.815,2.075,4.545,2.228
		c1.73,0.153,3.463-0.173,5.169-0.498c0.457-4.874,0.913-9.747,1.37-14.621c0.323-3.449,0.663-7.281-1.297-10.345
		c-1.38-2.156-3.841-3.848-6.273-2.278C233.066,401.716,234.003,412.113,233.502,417.157z"/>
	<path style="fill:#EFA878;" d="M300.72,417.978c0.033,1.443,0.116,3.021,1.082,4.093c1.096,1.216,2.922,1.352,4.558,1.404
		c1.78,0.056,3.747,0.05,5.091-1.118c1.609-1.399,1.651-3.839,1.567-5.969c-0.191-4.84-0.381-9.679-0.572-14.519
		c-0.086-2.179-0.399-4.746-2.311-5.795c-3.121-1.712-8.636,2.184-9.527,5.292c-0.631,2.202-0.153,4.933-0.102,7.181
		C300.578,411.691,300.649,414.835,300.72,417.978z"/>
</g>
<path style="fill:#FFC94E;" d="M188.838,348.07c-0.16,3.504-0.278,7.205,1.378,10.297c2.31,4.313,7.37,6.247,12.05,7.676
	c30.968,9.458,64.034,11.98,96.078,7.326c9.206-1.337,19.172-3.768,24.74-11.221c3.498-4.682,4.689-10.656,5.535-16.439
	c1.98-13.535,2.591-27.271,1.82-40.929c-0.085-1.513-0.185-3.064-0.579-4.534c-0.785-2.924-2.401-5.441-5.531-4.841
	c-3.701,0.71-7.387,1.915-11.044,2.843c-7.465,1.896-14.944,3.755-22.488,5.315c-14.916,3.085-30.174,4.963-45.414,3.738
	c-11.182-0.899-22.263-3.111-32.917-6.628c-5.41-1.786-10.611-3.992-15.796-6.336c-1.628-0.736-3.98-2.007-5.238-0.099
	c-1.215,1.842-0.466,7.164-0.567,9.376C190.189,318.433,189.514,333.252,188.838,348.07z"/>
<g>
	<path style="fill:#E1EAEF;" d="M202.273,282.824c-2.066,0.121-4.186,0.255-6.069,1.112c-1.883,0.856-3.506,2.61-3.587,4.677
		c-0.124,3.161,3.093,5.302,5.941,6.678c19.878,9.61,42.031,14.475,64.107,14.078s44.039-6.055,63.559-16.373
		c-5.365-3.537-11.35-7.229-17.724-6.412c-2.398,0.307-4.669,1.248-7.036,1.742c-3.526,0.736-7.259,0.453-10.634-0.806
		c-3.583-1.337-6.845-3.761-10.655-4.088c-2.919-0.251-5.78,0.773-8.531,1.781c-9.446,3.461-18.892,6.922-28.339,10.383
		c-1.883,0.69-3.851,1.391-5.844,1.171c-1.994-0.22-4.006-1.667-4.161-3.667c-0.218-2.812,2.947-4.531,5.595-5.501
		c1.647-0.603,9.383-2.309,9.764-4.056c0.491-2.248-4.401-3.077-5.727-3.102c-8.523-0.164-17.292,1.014-25.805,1.512
		C212.176,282.244,207.225,282.534,202.273,282.824z"/>
	<path style="fill:#E1EAEF;" d="M220.282,363.166c-0.247,3.804-0.307,8.131,2.419,10.796c2.102,2.054,5.635,2.444,8.133,0.896
		c3.671-2.274,4.233-7.292,4.406-11.607c0.664-16.555,1.327-33.11,1.991-49.665c0.058-1.452,0.11-2.947-0.382-4.314
		c-0.793-2.204-3.053-3.772-5.395-3.814c-2.342-0.042-4.627,1.407-5.651,3.513c-0.589,1.211-0.78,2.571-0.963,3.905
		C222.57,329.424,220.282,346.439,220.282,363.166z"/>
	<path style="fill:#E1EAEF;" d="M282.537,360.877c-0.299,4.09-0.447,8.663,2.255,11.747c2.551,2.913,7.801,3.228,10.157,0.156
		c1.438-1.874,1.572-4.406,1.648-6.766c0.572-17.716,1.915-35.597,1.716-53.319c-0.043-3.846-1.838-6.637-5.955-6.823
		c-2.446-0.111-4.155,0.979-5.181,3.178c-1.189,2.549-1.251,5.654-1.464,8.406c-0.341,4.416-0.646,8.836-0.97,13.253
		C284.009,340.765,283.273,350.821,282.537,360.877z"/>
</g>
<g>
	<path style="fill:#BEC9D2;" d="M226.173,365.734c-0.112,1.654-0.214,3.359,0.32,4.928c0.533,1.569,1.865,2.987,3.519,3.1
		c1.663,0.114,3.182-1.125,3.918-2.621c0.737-1.496,0.854-3.21,0.956-4.874c1.031-16.87,1.713-33.762,2.046-50.66
		c0.031-1.589,1.156-7.62-1.482-7.481c-1.935,0.102-3.632,3.993-4.06,5.471c-2.171,7.496-2.085,16.422-2.864,24.18
		C227.592,347.083,226.807,356.403,226.173,365.734z"/>
	<path style="fill:#BEC9D2;" d="M291.009,372.017c1.642,0.477,3.411-0.628,4.261-2.112c0.85-1.484,0.999-3.253,1.129-4.958
		c1.253-16.469,2.506-32.938,3.758-49.408c0.201-2.639,0.363-5.462-0.956-7.757c-0.797-1.387-2.415-2.498-4.034-2.598
		c-2.455-0.152-2.405,1.064-2.456,3.082c-0.129,5.11-0.273,10.219-0.409,15.329c-0.275,10.301-0.55,20.601-0.825,30.902
		C291.321,360.338,291.165,366.177,291.009,372.017z"/>
	<path style="fill:#BEC9D2;" d="M295.676,297.487c2.064-0.627,4.207-1.36,5.683-2.934s2.006-4.248,0.583-5.871
		c-0.96-1.095-2.536-1.443-3.99-1.371c-1.454,0.072-2.867,0.496-4.312,0.673c-4.707,0.578-9.652-1.712-12.255-5.677
		c0.029,0.045-13.53,6.103-14.808,6.594c-5.187,1.991-10.481,3.703-15.852,5.125c-4.419,1.17-9.736,3.131-14.355,2.597
		c-3.097-0.358-5.573-2.075-8.252-3.494c-2.272-1.204-4.397-1.956-6.641-0.27c-5.137,3.858,0.63,6.297,4.29,7.127
		c10.761,2.44,21.819,3.55,32.85,3.337C271.159,303.082,283.671,301.133,295.676,297.487z"/>
</g>
<g>
	<path style="fill:#E24242;" d="M200.909,320.551c5.892,2.158,11.784,4.316,17.675,6.474c1.323,0.485,2.696,1.001,3.668,2.021
		c1.339,1.405,1.659,3.546,1.3,5.453s-1.307,3.645-2.24,5.346c-8.276-2.125-16.552-4.25-24.828-6.376
		c-3.298-0.847-6.947-1.952-8.618-4.919c-1.529-2.715-1.096-8.419,1.465-10.562C192.022,315.739,198.131,319.534,200.909,320.551z"
		/>
	<path style="fill:#E24242;" d="M237.984,329.047c-1.619,2.929-2.971,6.698-1.067,9.45c1.828,2.642,5.596,2.824,8.808,2.741
		c10.81-0.28,21.62-0.56,32.43-0.84c1.337-0.035,2.709-0.076,3.947-0.583c6.54-2.677,2.645-11.693-3.535-10.991
		c-8.664,0.984-16.873,2.444-25.669,2.036C247.891,330.627,242.901,330.023,237.984,329.047z"/>
	<path style="fill:#E24242;" d="M299.647,328.447c-1.301,0.412-2.296,1.653-2.417,3.012c-0.121,1.359,0.64,2.756,1.848,3.391
		c1.266,0.666,2.79,0.496,4.208,0.308c5.628-0.744,11.257-1.488,16.885-2.232c2.136-0.282,4.471-0.668,5.88-2.297
		c1.151-1.329,1.414-3.268,1.008-4.978c-0.332-1.4-1.428-4.226-2.998-4.679c-1.875-0.542-5.897,1.642-7.734,2.224
		C310.77,324.957,305.21,326.707,299.647,328.447z"/>
</g>
<g>
	<path style="fill:#333333;" d="M242.844,353.315c-2.918-0.32-6.28-1.042-7.575-3.676c-1.217-2.473,0.008-5.398,1.222-7.872
		c13.256-0.194,26.512-0.388,39.768-0.582c2.543-0.037,5.546,0.16,6.909,2.308c0.822,1.296,0.767,2.999,0.228,4.436
		c-1.131,3.019-2.573,4.367-5.641,4.811c-3.849,0.558-7.725,0.939-11.607,1.165C258.381,354.358,250.577,354.163,242.844,353.315z"
		/>
	<path style="fill:#333333;" d="M304.191,337.39c-2.624,0.74-5.65,1.864-6.382,4.49c-0.749,2.69,1.605,5.451,4.301,6.18
		c2.696,0.729,5.547-0.005,8.235-0.762c2.795-0.787,5.582-1.6,8.362-2.439c3.069-0.927,6.289-1.988,8.413-4.39
		c3.491-3.949,1.663-8.995-3.673-8.361C317.035,332.87,310.404,335.638,304.191,337.39z"/>
	<path style="fill:#333333;" d="M196.107,333.042c-1.7-0.814-3.576-1.735-5.386-1.208c-2.752,0.802-3.537,4.61-2.302,7.197
		c1.868,3.915,6.472,5.55,10.622,6.811c4.691,1.425,9.382,2.85,14.072,4.275c4.037,1.226,8.789,3.423,10.487-1.95
		c2.301-7.284-6.856-9.22-12.037-10.203C206.209,336.946,201.033,335.401,196.107,333.042z"/>
</g>
<g>
	<path style="fill:#F2AE40;" d="M265.507,327.668c0.581,1.101,2.041,1.309,3.284,1.384c2.561,0.155,5.122,0.309,7.683,0.464
		c2.16,0.13,4.602,0.162,6.145-1.355c1.13-1.111,1.468-2.775,1.753-4.335c0.512-2.803,1.023-5.605,1.535-8.408
		c0.298-1.632,0.567-3.435-0.297-4.851c-2.308-3.782-13.006-2.881-15.418,0.526c-1.318,1.861-1.389,4.518-1.711,6.688
		c-0.286,1.927-0.658,3.665-1.575,5.404C266.229,324.465,264.657,326.11,265.507,327.668z"/>
	<path style="fill:#F2AE40;" d="M299.591,321.982c-0.046,1.404-0.01,3.007,1.046,3.934c1.168,1.025,2.955,0.69,4.458,0.295
		c6.038-1.586,12.076-3.173,18.114-4.759c2.034-0.534,4.233-1.178,5.46-2.886c1.146-1.595,1.148-3.713,1.105-5.676
		c-0.079-3.593-0.158-7.185-0.238-10.778c-0.041-1.878-0.14-3.916-1.351-5.353c-1.749-2.076-4.942-1.959-7.616-1.491
		c-3.579,0.627-7.103,1.565-10.521,2.796c-2.641,0.951-7.18,2.1-9.014,4.381c-1.486,1.849-0.971,5.039-1.043,7.239
		C299.858,313.782,299.724,317.882,299.591,321.982z"/>
	<path style="fill:#F2AE40;" d="M303.849,348.681c-1.443,0.269-2.97,0.58-4.04,1.585c-1.433,1.346-1.631,3.515-1.738,5.479
		c-0.178,3.284-0.356,6.568-0.534,9.852c-0.062,1.138-0.092,2.383,0.6,3.288c0.957,1.252,2.8,1.273,4.373,1.179
		c5.795-0.347,11.939-0.814,16.642-4.217c3.106-2.247,5.318-5.697,6.065-9.457c0.677-3.407,0.651-10.673-4.052-10.844
		c-2.555-0.093-5.443,0.918-7.944,1.385C310.098,347.514,306.974,348.098,303.849,348.681z"/>
	<path style="fill:#F2AE40;" d="M275.35,353.515c-5.699-0.053-11.869,0.042-16.397,3.504c-4.321,3.304-6.522,9.272-11.581,11.271
		c-1.526,0.603-3.194,0.779-4.725,1.369s-3.011,1.775-3.225,3.402c1.569,2.615,5.089,3.119,8.135,3.258
		c9.408,0.431,19.636,0.588,28.904-1.332c6.671-1.382,6.747-7.205,6.507-12.956C282.732,356.454,281.283,353.57,275.35,353.515z"/>
</g>
<g>
	<path style="fill:#E28749;" d="M236.726,289.978c-1.208,0.517-2.452,1.058-3.358,2.01s-1.393,2.431-0.815,3.611
		c0.986,2.012,3.905,1.73,6.06,1.118c17.096-4.85,33.861-10.865,50.142-17.989c2.962-1.296,6.294-3.106,6.817-6.296
		c0.563-3.429-2.954-6.664-6.336-5.788c-1.4,0.362-2.533,1.593-3.749,2.315c-1.956,1.162-4.156,1.936-6.243,2.829
		c-9.1,3.893-18.201,7.787-27.301,11.681C246.87,285.638,241.798,287.808,236.726,289.978z"/>
	<path style="fill:#E28749;" d="M246.512,275.428c3.213,2.319,6.573,4.701,10.474,5.391c1.624,0.287,3.348,0.257,4.86-0.401
		s2.776-2.017,3.029-3.647c0.476-3.061-2.449-5.471-5.037-7.173c-5.679-3.736-11.358-7.472-17.037-11.208
		c-2.627-1.728-5.645-3.685-8.952-3.212c-2.98,0.426-5.64,3.028-4.529,6.136c1.125,3.148,4.916,5.255,7.465,7.094
		C240.027,270.748,243.269,273.088,246.512,275.428z"/>
	<path style="fill:#E28749;" d="M434.932,153.352c-0.827,3.678-1.915,7.336-2.832,11.085c-4.89,19.994-9.253,40.118-13.081,60.343
		c-2.259,11.933-4.331,23.9-6.217,35.898c-0.713,4.533-2.009,9.439-1.717,14.044c0.217,3.427,0.69,6.133,0.084,9.62
		c-1.794,10.331-3.765,20.635-5.647,30.95c-3.765,20.633-7.53,41.265-11.294,61.898c-3.614,19.807-7.228,39.615-10.843,59.422
		c-0.405,2.22-0.81,4.505-0.367,6.717c0.443,2.213,1.94,4.367,4.134,4.9c2.638,0.64,5.228-1.18,7.095-3.151
		c7.552-7.978,9.922-19.403,11.978-30.194c7.751-40.673,16.321-81.292,23.173-122.123c6.479-38.605,13.761-77.092,20.639-115.628
		c1.071-5.997,1.382-12.958,3.429-18.693c1.822-5.104,3.252-9.988,4.364-15.389c2.589-12.581,4.652-25.271,6.18-38.024
		c0.346-2.885,0.654-5.883-0.275-8.636c-3.207-9.505-17.628-8.557-18.504,1.523c-0.472,5.426-2.826,10.466-4.355,15.678
		c-2.438,8.314-5.625,17.867-4.795,26.616C436.51,144.733,435.898,149.056,434.932,153.352z"/>
	<path style="fill:#E28749;" d="M61.111,186.638c0.228,1.742,0.423,3.494,0.565,5.264c0.767,9.52,1.652,19.03,2.655,28.528
		c1.78,16.856,4.992,33.725,6.677,50.483c1.812,18.026,1.732,36.458,2.592,54.558c0.478,10.056,0.971,20.122,2.117,30.128
		c0.569,4.969,1.243,9.96,2.274,14.857c0.707,3.358,2.604,6.151,3.205,9.495c1.823,10.149,2.193,20.792,3.271,31.051
		c1.09,10.371,2.179,20.743,3.269,31.114c0.327,3.112,0.654,6.223,0.981,9.334c0.231,2.201,0.706,4.769,2.694,5.743
		c2.467,1.208,5.196-0.926,7.112-2.893c3.763-3.864,7.686-8.016,8.851-13.283c0.734-3.32,0.29-6.773-0.157-10.144
		c-1.372-10.346-2.744-20.692-4.116-31.038c-0.686-5.173-1.366-10.347-2.058-15.519c-0.485-3.622-1.846-6.586-2.642-10.06
		c-2.209-9.641-2.325-20.253-3.429-30.088c-1.164-10.37-2.328-20.741-3.492-31.111c-0.233-2.074-0.466-4.148-0.698-6.222
		c-1.155-10.292-1.666-20.911-3.491-31.102c-1.583-8.84-1.116-18.073-2.104-27.11c-0.022-0.204-0.045-0.408-0.067-0.611
		c-1.134-10.354-2.268-20.708-3.402-31.063c-1.044-9.537-3.475-20.022-2.832-29.559c1.278-18.96-1.107-40.066-5.535-58.551
		c-0.094-0.392-0.19-0.784-0.287-1.176c-0.773-3.112-1.943-6.556-4.839-7.934c-8.204-3.903-12.747,8.944-12.584,14.907
		c0.297,10.883,1.306,21.844,2.565,32.653C58.97,173.858,60.267,180.177,61.111,186.638z"/>
</g>
<g>
	<path style="fill:#CC7337;" d="M391.919,441.156c-0.372,1.197-0.812,2.422-1.681,3.325c-0.87,0.903-2.282,1.399-3.413,0.859
		c-1.708-0.816-1.749-3.194-1.533-5.075c0.119-1.039,0.239-2.079,0.358-3.118c2.385-20.757,4.153-41.696,7.166-62.37
		c2.953-20.257,7.509-40.426,11.269-60.558c3.551-19.01,8.599-37.876,11.992-56.997c1.673-9.431,3.008-18.933,3.628-28.495
		c0.585-9.017,1.851-17.465,3.625-26.371c2.916-14.644,5.833-29.288,8.749-43.932c1.206-6.054,1.037-12.034,2.524-17.935
		c1.717-6.818,3.432-13.636,5.147-20.455c1.892-7.518,3.17-15.616,5.943-22.862c2.328-6.085,5.108-1.926,6.039,2.405
		c1.38,6.42-1.305,13.86-2.452,20.177c-1.608,8.854-3.418,17.576-5.234,26.301c-1.501,7.213-3.005,14.427-4.402,21.719
		c-7.732,40.385-15.446,80.783-23.029,121.237c-2.076,14.53-4.106,29.067-6.358,43.571c-2.984,19.216-6.509,38.343-10.244,57.425
		c-1.869,9.549-3.84,19.078-5.724,28.624c-0.701,3.552-0.303,6.132-0.086,9.618C394.468,432.491,393.166,437.139,391.919,441.156z"
		/>
	<path style="fill:#CC7337;" d="M82.483,316.643c-0.893-7.839-2.333-15.663-3.376-23.463c-2.745-20.52-5.106-41.092-7.081-61.7
		c-3.101-32.355-5.25-64.802-6.442-97.283c-0.115-3.13-0.694-6.958-3.631-8.049c-2.493-0.926-5.323,0.94-6.412,3.366
		c-1.089,2.426-0.897,5.209-0.682,7.859c3.356,41.304,7.443,82.55,12.247,123.711c4.771,40.877,9.56,81.568,14.593,122.424
		c2.718,22.062,5.435,44.124,8.153,66.186c1.198,9.722,12.329,5.44,9.692-2.565c-3.066-9.303-4.199-19.172-5.713-28.85
		c-3.375-21.579-6.12-43.256-8.232-64.995c-0.994-10.16-1.838-20.335-2.546-30.519C82.911,320.724,82.715,318.683,82.483,316.643z"
		/>
</g>
<g>
	<path style="fill:#FFC94E;" d="M110.976,195.213c8.456-18.628,16.912-37.256,25.368-55.883c-7.951-0.759-15.853-2.037-23.638-3.82
		c-3.941-0.902-7.853-1.934-11.726-3.093c-2.549-0.763-8.169-3.925-10.707-3.308c-4.965,1.206,1.482,15.859,2.489,19.103
		c2.346,7.558,4.936,15.039,7.766,22.429c1.627,4.249,3.333,8.468,5.117,12.654C106.38,185.022,111.63,193.772,110.976,195.213z"/>
	<path style="fill:#FFC94E;" d="M358.298,176.285c7.695-14.436,14.014-29.604,18.845-45.233c-0.062,0.2-17.98-0.75-19.74-0.712
		c-5.546,0.12-13.118-0.521-18.242,1.872c-11.789,5.506,1.554,19.33,5.715,25.186C349.35,163.694,353.824,169.989,358.298,176.285z"
		/>
</g>
<g>
	<path style="fill:#F2AE40;" d="M107.551,187.626c-0.182,1.762-0.09,4.016,1.551,4.682c1.778,0.721,3.468-1.147,4.468-2.784
		c4.805-7.868,9.135-16.026,12.964-24.413c3.678-8.058,8.116-17.032,9.845-25.74c-5.443-3.202-16.722-5.995-21.737-0.502
		c-2.844,3.115-2.841,7.733-3.249,11.671c-0.608,5.872-1.217,11.744-1.825,17.616C108.896,174.646,108.224,181.136,107.551,187.626z
		"/>
	<path style="fill:#F2AE40;" d="M355.482,175.267c7.884-12.425,13.768-26.115,17.358-40.386c0.351-1.393,0.582-3.117-0.515-4.044
		c-0.847-0.715-2.094-0.592-3.19-0.429c-2.387,0.355-4.774,0.71-7.161,1.065c-1.511,0.225-5.862,0.084-6.957,1.042
		c-2.015,1.763-0.898,10.889-0.914,13.667c-0.029,4.958,0.077,9.917,0.318,14.87c0.115,2.373,0.262,4.745,0.439,7.114
		C354.958,169.51,356.148,174.205,355.482,175.267z"/>
</g>
<g>
	<path style="fill:#E24242;" d="M157.213,188.838c0.967,2.145,2.556,4.665,4.891,4.38c1.942-0.237,3.025-2.309,3.776-4.115
		c7.025-16.897,14.05-33.793,21.075-50.69c-7.16,0.059-14.32,0.119-21.479,0.178c-6.51,0.054-14.14-0.992-20.511,0.36
		c-13.195,2.801-0.604,21.379,2.301,27.823C150.582,174.129,153.898,181.483,157.213,188.838z"/>
	<path style="fill:#E24242;" d="M392.786,164.373c0.897,1.579,1.97,3.299,3.726,3.764c1.6,0.423,3.322-0.385,4.44-1.604
		s1.754-2.793,2.367-4.33c5.059-12.679,10.118-25.357,15.177-38.036c0.802-2.011,1.458-4.672-0.218-6.042
		c-1.274-1.041-3.15-0.646-4.733-0.197c-10.683,3.028-21.366,6.057-32.049,9.085c-4.747,1.346-8.645,1.707-5.857,7.181
		c2.477,4.862,5.421,9.541,8.117,14.286c1.53,2.694,3.061,5.387,4.591,8.081C389.331,158.291,392.786,162.441,392.786,164.373z"/>
</g>
<g>
	<path style="fill:#C13636;" d="M158.709,190.527c1.841,0.499,3.835-0.399,5.153-1.778c1.319-1.379,2.098-3.173,2.851-4.926
		c5.487-12.777,10.975-25.554,16.462-38.331c0.6-1.397,1.164-3.132,0.223-4.326c-2.04-2.587-10.504-0.991-13.461-0.827
		c-2.72,0.151-5.688,0.346-7.363,2.793c-2.284,3.337-1.82,9.367-2.187,13.227c-0.516,5.422-0.913,10.855-1.192,16.295
		C159.114,174.266,157.9,190.312,158.709,190.527z"/>
	<path style="fill:#C13636;" d="M394.944,166.042c-0.02,1.125,0.091,2.484,1.089,3.003c1.414,0.736,2.846-0.928,3.567-2.35
		c7.635-15.066,13.467-31.046,17.329-47.489c-5.357,1.368-10.713,2.738-16.07,4.104c-1.793,0.458-4.129,0.497-5.1,2.189
		c-0.879,1.532-0.193,5.335-0.224,7.057C395.339,143.719,395.142,154.88,394.944,166.042z"/>
</g>
<path style="fill:#333333;" d="M205.583,187.647c7.182-15.74,13.772-31.75,19.753-47.984c-0.077,0.209-17.758-0.087-19.56,0.078
	c-3.16,0.289-5.948-1.689-9.326-1.49c-2.689,0.158-5.303,0.904-7.892,1.646c-0.892,0.256-1.918,0.637-2.18,1.527
	c-0.165,0.559,0.035,1.154,0.232,1.702c0.92,2.561,2.225,5.201,2.382,7.946c0.119,2.069-0.146,3.77,0.394,5.853
	c1.253,4.835,3.615,9.36,5.733,13.855C197.946,176.779,201.457,182.456,205.583,187.647z"/>
<path style="fill:#2B2B2B;" d="M204.244,185.502c7.012-15.687,14.024-31.374,21.036-47.062c0.076-0.169-5.234-0.511-5.723-0.472
	c-2.167,0.17-4.306,0.728-6.275,1.65c-3.63,1.699-6.631,4.762-8.65,8.205c-3.296,5.621-1.338,13.569-1.096,19.725
	C203.772,173.532,204.008,179.517,204.244,185.502z"/>
<path style="fill:#009362;" d="M206.718,403.869c-5.874-1.232-11.856,2.691-14.932,7.845s-3.888,11.302-4.635,17.257
	c-2.469-3.988-5.014-8.062-8.706-10.956c-3.691-2.894-8.825-4.413-13.163-2.63c-5.698,2.341-7.982,9.272-8.15,15.43
	c-3.716-6.018-13.279-5.576-18.629-0.948c-5.349,4.628-7.554,11.821-9.513,18.618c-6.034-4.047-14.035-4.996-20.848-2.472
	s-12.265,8.456-14.205,15.458c-1.302-3.56-6.174-4.666-9.644-3.139c-3.47,1.526-5.776,4.842-7.699,8.109s-3.74,6.752-6.751,9.055
	c-4.019,3.072-9.382,3.48-14.32,4.58c-4.938,1.1-10.296,3.626-11.665,8.496c-1.128,4.015,1.002,8.402,4.25,11.019
	c3.248,2.616,7.41,3.784,11.496,4.617c12.215,2.488,24.778,2.531,37.244,2.565c43.475,0.118,86.95,0.235,130.425,0.353
	c8.02,0.022,15.665-1.181,23.667-1.48c8.813-0.329,17.626-0.659,26.439-0.988c25.921-0.969,51.841-1.937,77.761-2.906
	c25.6-0.957,51.368-2.877,76.984-2.877c8.854-0.331,18.393-0.907,25.273-6.489c8.22-6.669,9.831-20.079,3.424-28.505
	c-1.723-2.267-3.893-4.148-6.045-6.012c-2.775-2.403-5.55-4.806-8.324-7.208c-3.993-3.458-8.194-7.026-13.324-8.285
	c-6.021-1.477-13.004,0.908-16.253,6.187c0.334-7.056-8.419-11.668-15.278-9.982c-6.859,1.686-11.917,7.331-16.521,12.687
	c1.613-6.591-1.954-14.075-8.09-16.972s-14.182-0.895-18.245,4.539c3.711-5.612,4.059-13.807-0.575-18.685
	s-14.346-4.01-16.808,2.252c3.797-4.96,0.067-13.064-5.949-14.741c-6.017-1.677-12.582,1.913-15.964,7.164
	s-4.145,11.77-4.043,18.015c0.116,7.074,1.393,14.508,5.898,19.962c3.804,4.604,9.429,7.24,14.105,10.955
	c4.676,3.715,8.663,9.598,7.036,15.344c-1.872,6.614-10.111,9.232-16.941,8.449c-13.772-1.578-25.095-12.458-30.914-25.039
	c-3.335-7.212-5.17-15.003-6.273-22.844c-0.807-5.736,0.83-16.636-4.38-20.291c-2.689-1.886-6.48-1.465-9.334,0.161
	s-4.98,4.249-7.037,6.81c0.612-4.298-1.782-8.858-5.667-10.795c-3.885-1.936-8.968-1.103-12.031,1.974
	c-5.591,5.616-3.196,14.874-2.445,22.764c2.01,21.107-12.928,42.565-33.42,48.007c-3.82,1.015-7.894,1.519-11.711,0.493
	s-7.329-3.819-8.369-7.632c-1.242-4.555,1.237-9.384,4.612-12.685s7.615-5.572,11.238-8.599
	c8.656-7.234,13.345-19.236,11.966-30.437c-0.559-4.54-2.634-9.226-4.003-13.578C216.06,410.535,212.566,405.096,206.718,403.869z"
	/>
<path style="fill:#017C50;" d="M52.76,499.798c-3.577-0.116-7.777-0.584-9.574-3.679c-2.342-4.033,1.309-8.928,5.098-11.646
	c7.618-5.465,16.979-8.459,26.355-8.43c0.41-9.263,8.904-17.424,18.176-17.464c5.908-2.996,12.521-4.587,19.145-4.607
	c4.817-0.015,9.595,0.786,14.346,1.585c2.322,0.39,4.644,0.78,6.965,1.171c4.556,0.766,9.214,1.566,13.249,3.816
	c3.867,2.156,6.992,5.616,8.744,9.682c-0.571-7.831,4.23-15.771,11.43-18.903c7.2-3.132,16.283-1.231,21.622,4.526
	c3.181-6.848,8.666-12.6,15.354-16.104c2.79-1.462,5.882-2.556,9.027-2.375c3.145,0.181,6.338,1.849,7.675,4.702
	c1.384,2.954,0.528,6.571-1.339,9.246s-4.602,4.599-7.295,6.44c-5.323,3.638-10.88,7.343-14.283,12.819
	c-2.003,3.223-3.076,7.236-2.618,11.03c0.65,5.386,2.979,5.616,7.931,5.878c9.18,0.485,18.488-1.447,26.689-5.608
	c8.414-4.269,15.982-11.429,17.963-20.654c0.61-2.84,0.673-5.773,1.24-8.622s1.742-5.734,4.045-7.503
	c2.303-1.77,5.937-2.015,7.964,0.066c1.685,1.73,1.823,4.398,1.86,6.813c0.068,4.397,0.135,8.794,0.203,13.191
	c1.449-3.388,3.027-6.941,6.003-9.115s7.799-2.272,9.866,0.778c1.684,2.485,0.927,5.804,0.284,8.737
	c-0.644,2.933-0.927,6.47,1.308,8.475c0.94-2.423,1.925-4.918,3.744-6.774c1.82-1.855,4.712-2.918,7.082-1.853
	c2.684,1.205,3.611,5.164,1.741,7.436c0.064-2.592,3.645-3.759,5.99-2.652c2.344,1.107,3.756,3.486,5.348,5.532
	c7.501,9.638,21.142,12.336,32.604,9.18c5.074-1.397,9.871-5.017,11.152-10.122c1.195-4.762-0.717-10.248,1.809-14.458
	c1.822-3.037,5.899-4.499,9.236-3.31s5.572,4.898,5.063,8.404c-0.397,2.74-2.054,6.066,0.048,7.868
	c1.902,1.63,4.903-0.081,6.205-2.221c1.302-2.14,1.958-4.805,3.968-6.299c3.256-2.421,8.286-0.058,9.98,3.629
	c1.694,3.686,1.002,7.99,0.072,11.939c2.803-3.126,5.654-6.293,9.198-8.545c3.544-2.251,7.934-3.509,11.996-2.445
	s7.518,4.875,7.286,9.067c5.076-6.973,15.455-9.434,23.122-5.482c3.45,1.778,6.688,4.749,10.557,4.431
	c3.57-0.293,6.701-3.42,10.233-2.824c4.021,0.678,5.673,6.108,3.951,9.804c-1.722,3.696-5.543,5.895-9.242,7.612
	c-23.636,10.971-50.575,11.605-76.629,12.045c-17.583,0.297-35.178,0.811-52.764,0.892c-5.594,0.026-10.467-1.737-15.928-2.257
	c-8.072-0.768-16.732,0.252-24.836,0.546c-13.985,0.506-27.97,1.012-41.955,1.518c-11.914,0.431-23.827,0.862-35.741,1.293
	c-10.23,0.37-19.973-0.472-30.152,0.072c-17.435,0.931-34.913,1.043-52.359,0.336c-11.732-0.475-23.45-1.32-35.129-2.534
	C74.873,502.729,63.743,500.155,52.76,499.798z"/>
<path d="M464.744,458.973c-2.997-2.056-6.669-3.187-10.32-2.912c-0.176,0.013-0.495,0.036-0.858,0.072
	c0.087-1.821-0.061-3.996-0.112-4.638c-0.639-8.043-6.16-15.474-14.291-17.122c-6.8-1.379-15.192,2.457-20.061,7.827
	c-0.514-1.913-1.061-3.775-2.188-5.465c-2.273-3.407-6.417-5.346-10.465-5.406c-0.011,0-0.022,0.001-0.033,0.001
	c2.338-8.416,3.892-17.069,5.707-25.618c2.637-12.42,5.197-24.856,7.686-37.307c4.98-24.904,9.705-49.858,14.318-74.832
	c9.105-49.295,17.804-98.681,25.929-148.146c2.045-12.447,4.504-24.858,6.325-37.338c1.246-8.542-0.425-19.634-10.208-22.372
	c-8.2-2.295-14.341,4.254-17.124,11.182c-0.771,1.92-1.422,3.905-1.986,5.933c-4.323,1.374-8.19,3.618-12.401,5.6
	c-5.255,2.472-10.627,4.675-16.088,6.651c-10.809,3.911-21.937,6.944-33.184,9.3c-11.274,2.362-22.644,3.871-34.094,5.052
	c-0.881,0.091-5.855,0.36-10.891,1.023c2.437-3.994,4.514-8.193,6.25-12.577c0.514-1.297,1.026-2.658,1.516-4.058
	c8.479-0.207,17.241-1.108,23.99-6.753c6.309-5.277,8.722-13.448,5.92-21.251c-3.157-8.79-10.707-14.449-19.496-18.375
	c0.847-8.347,0.166-16.911-0.98-25.166c-1.17-8.422-2.661-17.559-6.511-25.237c-3.49-6.961-9.84-10.912-17.48-11.842
	c-8.855-1.078-17.121,2.062-25.7,3.629c-2.137,0.39-4.552,0.878-6.745,0.569c-2.837-0.4-3.926-1.977-5.873-3.739
	c-3.062-2.771-6.488-4.84-10.619-5.457c-7.792-1.164-15.292,2.862-20.421,8.486c-5.817,6.377-9.857,14.48-13.353,22.298
	c-1.863,4.166-3.503,8.386-4.814,12.759c-0.611,2.038-1.29,3.972-1.515,5.907c-2.642,0.259-5.279,0.586-7.909,0.99
	c-8.815,1.356-18.562,3.518-25.012,10.184c-6.538,6.758-6.921,16.296-0.714,23.395c4.519,5.169,13.808,10.102,21.41,10.049
	c-0.096,1.428-0.172,2.795-0.27,4.019c-0.679,8.48-0.611,17.108,1.012,25.485c0.568,2.931,1.381,5.767,2.412,8.488
	c-0.32,0.06-0.653,0.123-1.006,0.186c-3.589,0.64-7.226,0.92-10.863,1.103c-6.837,0.345-13.695,0.431-20.538,0.573
	c-13.775,0.285-27.546,0.326-41.318-0.133c-13.957-0.466-27.902-1.392-41.706-3.577c-6.427-1.017-12.797-2.309-19.129-3.803
	c-5.421-1.279-10.837-3.131-16.37-3.971c-1.937-4.039-5.065-7.116-10.407-6.975c-8.637,0.228-12.907,8.414-13.223,16.091
	c-0.453,11.02,1.789,22.609,2.797,33.584c4.256,46.358,8.335,92.738,12.973,139.06c2.565,25.62,5.339,51.221,8.469,76.778
	c2.938,23.984,5.835,48.077,10.563,71.787c-2.124,0.134-4.258,0.656-6.274,1.593c-6.405,2.975-9.743,9.08-11.242,15.641
	c-0.13-0.206-2.448,0.039-2.767,0.055c-1.523,0.08-3.076,0.522-4.508,1.022c-2.956,1.032-5.681,2.615-8.372,4.19
	c-2.487,1.455-4.985,2.919-7.211,4.749c-2.29,1.884-4.296,4.186-5.475,6.907c-1.18,2.721-1.476,5.891-0.438,8.67
	c0.903,2.418,2.749,4.401,4.89,5.844c2.141,1.442,4.575,2.388,7.025,3.2c8.854,2.935,18.079,4.222,27.373,4.461
	c1.455,0.038,2.91,0.092,4.36,0.224c3.658,0.333,7.292,0.579,10.97,0.726c24.941,0.994,49.912,1.457,74.872,1.655
	c49.408,0.393,98.775-0.402,148.137-2.543c25.341-1.099,50.725-2.192,75.985-4.579c1.662,0.039,3.329,0.052,5.01,0.002
	c11.014-0.331,22.04-0.849,33.039-1.512c15.688-0.947,39.216-3.22,41.824-22.885C473.987,472.506,471.556,463.645,464.744,458.973z
	 M441.205,130.692c1.029-5.634,2.061-11.267,3.095-16.899c0.854-4.65,1.397-9.545,3.247-13.938c1.286-3.055,3.965-7.79,7.959-5.382
	c5.351,3.227,3.112,12.296,2.296,17.143c-2,11.883-4.111,23.747-6.244,35.606c-8.342,46.368-16.172,92.824-24.762,139.149
	c-4.811,25.95-9.835,51.861-15.104,77.722c-2.668,13.093-5.391,26.176-8.183,39.244c-2.167,10.145-4.791,20.229-6.172,30.497
	c-3.066,1.66-5.945,3.98-8.52,6.473c4.979-45.128,13.189-89.864,20.959-134.579c8.073-46.458,16.382-92.868,24.924-139.242
	C436.898,154.561,439.025,142.621,441.205,130.692z M381.089,131.724c10.81-2.322,21.464-5.378,31.822-9.25
	c-2.106,7.003-4.279,13.987-6.582,20.927c-1.416,4.267-2.876,8.519-4.379,12.756c-0.644,1.816-1.296,3.629-1.956,5.439
	c-0.253,0.693-0.506,1.385-0.761,2.077c-0.181,0.491-0.342,1.371-0.731,1.747c-0.632,0.611-1.403-0.593-1.769-1.017
	c-0.593-0.688-1.126-1.426-1.629-2.182c-0.975-1.464-1.825-3.004-2.75-4.499c-1.955-3.163-3.667-6.468-5.384-9.763
	c-2.795-5.363-5.613-10.64-9.056-15.578C378.973,132.165,380.032,131.951,381.089,131.724z M347.5,136.926
	c7.328-0.751,14.64-1.723,21.905-2.962c-3.054,12.526-6.899,24.824-11.58,36.834c-4.443-5.204-7.884-11.127-11.37-17.06
	c-3.313-5.637-6.57-11.496-11.401-15.88C339.209,137.653,343.357,137.351,347.5,136.926z M342.451,159.736
	c4,7.085,8.256,13.96,14.123,19.669c1.401,1.363,4.453,1.394,5.339-0.688c5.357-12.592,9.753-25.483,13.085-38.724
	c3.698,5.894,6.554,12.295,9.985,18.362c2.533,4.48,8.318,16.254,14.739,15.241c3.314-0.522,4.422-3.874,5.455-6.59
	c1.941-5.103,3.776-10.249,5.568-15.405c3.687-10.607,7.109-21.301,10.192-32.099c4.737-1.789,9.614-3.803,13.916-6.387
	c-0.922,5.446-1.598,10.953-2.554,16.165c-9.178,50.035-17.916,100.157-26.636,150.274c-4.835,27.785-9.678,55.57-14.271,83.396
	c-3.835,23.226-7.405,46.35-8.545,69.782c-0.982-0.861-2.053-1.629-3.252-2.255c-4.073-2.125-8.379-2.052-12.493-0.815
	c0.915-5.291,0.597-10.531-3.546-14.148c-4.786-4.178-11.222-3.743-17.05-1.487c0.188-1.815,0.08-3.658-0.782-5.602
	c-1.79-4.042-5.616-6.88-9.926-7.713c-7.373-1.426-13.08,2.481-17.34,7.785c-0.271-3.06-0.677-6.112-1.541-8.885
	c3.709-1.003,6.887-2.828,8.36-6.325c1.745-4.144,1.32-9.279,0.732-13.613c-0.478-3.516-0.971-7.48-2.635-10.7
	c0.319-0.267,0.64-0.531,0.939-0.824c4.626-4.519,5.327-11.075,6.331-17.13c2.524-15.226,3.897-30.643,5.004-46.029
	c0.202-2.809,0.286-5.52-0.138-8.049c1.195-6.112-0.105-12.76-0.708-19.058c-0.126-1.315-0.312-8.235-1.636-13.077
	c4.704-1.914,9.473-3.668,14.1-5.772c6.993-3.179,13.972-7.052,19.292-12.695c1.274-1.352,2.504-2.796,3.473-4.386
	c1.015-1.663,1.681-3.505,2.556-5.24c1.357-2.693,2.538-5.157,2.704-8.222c0.165-3.043-0.36-6.095-1.195-9.013
	c-1.862-6.507-5.217-12.556-8.874-18.211c-2.48-3.835-5.178-7.525-7.989-11.123c-6.66-8.527-14.423-16.055-22.981-22.664
	c-7.153-5.523-15.472-11.303-24.181-14.689c5.712-4.107,10.754-9.265,14.989-14.658c1.41,0.1,2.862,0.031,4.181-0.034
	c0.04,0.108,0.09,0.215,0.153,0.319C333.694,145.57,338.337,152.45,342.451,159.736z M241.889,422.467
	c-0.003,0-0.006-0.001-0.01-0.001c-5.089,0.059-9.799,0.648-14.794-0.904c-0.353-0.11-1.193-0.471-2.145-0.778
	c0.125-3.976,0.258-7.952,0.35-11.93c0.057-2.47,0.522-5.711,0.06-8.483c3.844,0.34,7.7,0.542,11.559,0.633
	c1.731,0.041,3.462,0.057,5.193,0.064C241.827,408.189,241.892,415.328,241.889,422.467z M227.946,457.49
	c-5.68-1.695-3.46-9.556-3.324-14.145c0.166-5.586,0.015-11.168,0.147-16.753c0.005-0.234,0.015-0.467,0.021-0.701
	c1.785,0.673,3.754,1.047,4.959,1.291c3.669,0.743,8.388,1.478,12.121,0.292c-0.023,2.82-0.07,5.64-0.169,8.457
	c-0.179,5.064,0.227,10.738-1.211,15.646C238.886,457.055,233.199,459.057,227.946,457.49z M238.33,464.638
	c-0.541,1.085-1.164,2.152-1.908,3.194c-5.089,7.129-12.26,13.583-20.978,15.601c-3.419,0.791-12.441,1.856-15.012-1.543
	c-2.408-3.182,2.522-9.58,4.233-12.026c2.502-3.578,5.596-6.648,8.828-9.561c0.891-0.804,1.874-1.599,2.813-2.44
	c1.857,4.725,6.703,7.375,11.579,8.013C231.844,466.394,235.35,465.91,238.33,464.638z M236.909,392.195
	c-3.323-0.055-6.644-0.18-9.96-0.416c-2.119-0.151-9.577,0.22-10.99-1.321c-0.862-0.94-0.29-7.343-0.402-8.789
	c-0.141-1.834-0.294-3.376-0.709-4.863c4.618,0.798,9.249,1.378,13.712,1.929c9.585,1.184,19.24,1.75,28.895,1.74
	c-0.123,0.703-0.197,1.461-0.248,2.334c-0.103,1.75,0.61,8.259-1.157,9.342c-1.185,0.727-6.552-0.011-8.156,0.016
	C244.234,392.228,240.572,392.256,236.909,392.195z M193.402,353.178c-0.034-2.15-0.062-4.299-0.092-6.449
	c2.675,1.755,5.874,3.02,8.2,3.922c2.994,1.161,6.106,1.977,9.228,2.711c1.563,0.368,3.132,0.715,4.696,1.077
	c1.061,0.245,2.852,0.141,3.675,0.956c0.578,0.572,0.072,1.74-0.019,2.467c-0.187,1.483-0.369,2.966-0.52,4.453
	c-0.105,1.037-0.202,2.076-0.259,3.117c-0.038,0.689,0.138,2.012-0.683,2.308c-0.653,0.235-1.956-0.33-2.591-0.468
	c-2.326-0.504-4.641-1.059-6.938-1.678c-3.987-1.074-11.472-2.374-13.773-6.062C193.186,357.706,193.434,355.252,193.402,353.178z
	 M236.504,193.098c-0.057-0.648-0.936-0.997-1.297-0.351c-3.156,5.658-5.133,11.545-7.683,17.516
	c-1.388,3.251-2.828,6.427-4.539,9.524c-0.326,0.591-0.645,1.137-0.955,1.669c-0.548-0.783-1.131-1.57-1.788-2.354
	c-3.139-3.744-7.395-5.129-12.192-4.792c-5.047,0.354-10.217,2.12-14.845,4.743c0.113-0.236,0.223-0.475,0.341-0.707
	c1.813-3.584,3.814-7.079,5.955-10.477c4.096-6.504,8.733-12.639,13.882-18.345c6.552-7.26,13.776-13.203,21.442-18.684
	c0.316,2.876,1.346,5.91,1.737,8.436c0.957,6.18,1.571,12.406,1.543,18.666c-0.028,6.201-0.743,12.4-1.706,18.52
	c-0.492,3.128-1.496,6.149-2.207,9.229c-0.542,2.35-0.48,5.695-3.483,6.295c-1.229,0.245-2.616-0.326-3.198-1.436
	c-0.493-0.941-0.372-2.108,0.062-3.077c0.514-1.148,1.441-1.809,2.144-2.77c0.738-1.011,1.193-2.375,1.662-3.526
	c0.974-2.391,1.736-4.858,2.537-7.31C236.146,207.046,237.122,200.184,236.504,193.098z M195.081,223.651
	c6.601-3.668,16.475-4.678,21.272,1.99c1.421,1.975,2.875,4.399,4.677,6.284c-6.064,1.535-11.76,4.627-15.435,8.447
	c-3.651,3.795-6.229,8.929-6.302,14.171c-0.188-0.104-0.387-0.194-0.608-0.253c-3.446-0.916-7.04-0.782-10.117-2.83
	c-3.076-2.048-4.996-5.502-5.374-9.157C182.402,234.655,188.792,227.146,195.081,223.651z M212.257,243.151
	c4.41-3.544,10.287-5.573,15.93-5.884c6.735-0.371,14.813,2.79,13.655,10.721c-0.651,4.454-6.497,2.319-9.463,3.695
	c-1.535,0.712-2.369,2.199-3.749,2.993c-1.608,0.925-1.666,0.144-3.477,0.166c-3.792,0.046-4.673,3.954-6.969,6.116
	c-2.723,2.564-5.417,2.783-7.673,1.626c-1.554-1.434-3.148-2.8-3.904-5.101C204.786,251.951,208.026,246.552,212.257,243.151z
	 M313.21,101.168c2.354,1.926,2.412,2.313,1.411,5.04c-0.605,1.648-1.564,3.109-2.078,4.821c-1.004,3.341-1.137,6.926-0.112,10.276
	c1.082,3.537,3.922,7.246,7.403,8.55c-1.038,1.461-2.128,2.882-3.271,4.247c-4.862,5.809-10.737,11.227-17.445,14.823
	c-7.528,4.036-16.8,4.589-25.193,4.536c-16.458-0.103-33.228-6.134-40.335-22.11c-3.77-8.476-4.393-17.918-4.315-27.069
	c0.039-4.573,0.115-9.15,0.306-13.72c0.059-1.409,0.228-2.867,0.362-4.33c0.45-1.336,1.022-2.589,1.844-3.674
	c3.134-4.133,9.793-5.974,14.608-7.136c11.546-2.786,24.022-2.525,35.755-1.223c10.002,1.11,20.02,3.244,29.702,6.147
	c-1.415,1.583-2.532,3.483-3.246,5.287C306.081,92.013,308.154,97.031,313.21,101.168z M313.59,343.753
	c-3.738,1.016-8.027,1.501-11.845,2.772c0.131-2.537,0.233-5.077,0.316-7.616c3.895,0.098,7.907-1.113,11.598-2.081
	c3.512-0.922,7.227-1.619,10.23-3.495c-0.295,2.585-0.612,5.168-0.968,7.747C319.742,341.474,316.462,342.973,313.59,343.753z
	 M322.091,347.015c-0.487,3.939-0.891,8.244-2.395,11.753c-2.008,4.684-7.193,5.854-11.72,6.912
	c-2.557,0.598-5.131,1.126-7.712,1.621c0.54-3.892,0.637-7.923,0.917-11.733c0.098-1.335,0.165-2.672,0.25-4.008
	c4.837,0.12,10.087-1.613,14.518-2.805C317.783,348.262,320.048,347.807,322.091,347.015z M313.379,332.27
	c-3.622,1.011-7.618,1.488-11.216,2.766c0.04-2.139,0.061-4.278,0.053-6.418c4.139,0.482,9.833-1.4,12.78-2.143
	c2.305-0.582,6.566-1.34,9.9-2.835c-0.185,1.964-0.384,3.926-0.59,5.888C320.546,329.597,317.115,331.227,313.379,332.27z
	 M323.124,318.388c-3.175,1.064-6.268,2.204-9.524,3.025c-3.232,0.816-6.51,1.395-9.796,1.939c-0.601,0.1-1.141,0.169-1.641,0.246
	c-0.026-1.468-0.06-2.935-0.101-4.402c-0.117-4.268,0.295-9.379-1.007-13.646c8.464-2.458,16.814-5.322,25.024-8.209
	c1.622,3.623,0.335,8.57,0.012,12.537c-0.211,2.584-0.424,5.169-0.647,7.753C324.712,317.82,323.955,318.11,323.124,318.388z
	 M315.161,281.251c0.903-1.234,1.751-2.553,2.539-3.968c2.084-3.742,4.207-6.314,7.163-8.376c0.003,4.239,0.996,8.938,1.189,11.878
	c0.105,1.6,0.216,3.167,0.341,4.72C322.918,283.548,319.008,282.154,315.161,281.251z M323.015,261.952
	c-3.135,1.642-5.796,3.75-7.884,6.626c-2.571,3.539-3.989,7.896-6.889,11.198c-2.883,3.281-7.022,4.946-11.273,5.5
	c-2.053,0.268-4.261,0.389-6.301-0.036c-3.756-0.783-4.505-1.708-0.923-3.468c4.905-2.41,13.135-7.306,9.097-14.113
	c-1.55-2.614-4.595-3.619-7.486-3.603c-2.02,0.011-3.684,0.801-5.622,1.181c-0.746,0.146-4.656,1.758-4.301-0.46
	c0.042-0.264,1.845-0.795,2.184-0.959c4.271-2.073,6.758-6.087,10.723-8.526c0.741-0.456,1.496-0.821,2.261-1.128
	c6.952,0.751,13.915-1.041,19.603-5.293c6.748-5.045,11.398-12.494,19.226-16.096c7.375-3.393,16.167-3.799,23.983-1.828
	c1.893,0.477,4.401,0.834,5.344,2.793c0.881,1.83-0.347,2.956-1.083,4.392c-0.65,1.27-1.898,2.415-2.904,3.4
	c-2.375,2.324-5.05,4.349-7.791,6.219c-1.479,1.009-2.987,2.012-4.573,2.848C340.196,254.927,331.233,257.647,323.015,261.952z
	 M231.331,260.992c0.737-0.471,1.419-1.043,2.012-1.603c1.248-1.178,2.075-1.641,3.198-1.887c2.675,3.394,7.186,5.944,10.397,8.36
	c4.66,3.507,9.532,8.147,14.734,11.204c-1.007,0.45-2.013,0.902-3.024,1.344c-0.535,0.234-1.077,0.449-1.615,0.677
	c-1.586-2.358-3.847-3.449-6.318-4.993c-3.195-1.997-6.366-4.034-9.512-6.108C238.243,266.037,234.869,263.104,231.331,260.992z
	 M236.178,271.915c-0.669,1.181-1.179,2.429-1.631,3.764c-0.173,0.51-0.385,1.112-0.581,1.747c-2.417,0.015-4.835,0.058-7.25,0.151
	c0.535-2.127,0.854-4.352,1.201-6.365c0.222-1.285,0.451-2.788,0.547-4.3C230.967,268.793,233.789,270.415,236.178,271.915z
	 M272.49,182.291c7.981-0.374,15.107-4.297,20.984-9.493c2.397-2.12,4.546-4.477,6.579-6.936c-1.35,3.267-2.425,6.661-3.461,9.859
	c-2.573,7.943-4.432,16.114-5.964,24.315c-0.392,2.097-0.773,4.207-1.137,6.328c-5.118-2.159-12.006-0.949-17.496-1.442
	c-5.846-0.525-12.034-2.513-17.951-2.731c-0.352-7.253-0.798-14.503-1.201-21.753c-0.14-2.517-0.199-5.176-0.379-7.842
	c0.166,0.235,0.334,0.478,0.497,0.692C257.611,179.382,264.822,182.65,272.49,182.291z M253.588,159.137
	c12.114,4.127,25.515,4.128,38.025,1.876c0.698-0.126,1.387-0.285,2.074-0.448c-0.616,0.927-1.218,1.788-1.824,2.496
	c-4.203,4.898-9.362,9.291-15.712,11.017c-6.257,1.701-12.988,0.384-17.333-4.638c-2.19-2.531-3.557-5.49-4.653-8.615
	C253.962,160.249,253.779,159.686,253.588,159.137z M254.276,208.067c4.963,1.862,10.846,2.314,15.85,2.927
	c2.405,0.295,4.731,0.603,7.148,0.711c2.656,0.119,5.312,0.237,7.968,0.356c0.651,0.029,1.32,0.062,1.915,0.328
	c1.53,0.684,1.045,2.166,0.867,3.487c-0.233,1.723-0.445,3.448-0.632,5.176c-0.369,3.405-0.643,6.822-0.785,10.244
	c-5.82-0.705-11.896-0.24-17.735-0.951c-3.568-0.434-7.103-1.091-10.631-1.766c-1.91-0.366-3.68-0.924-5.456-1.02
	C253.864,221.044,254.402,214.682,254.276,208.067z M266.495,236.764c6.261,0.879,13.549,2.097,20.016,1.192
	c0.057,4.415,0.367,8.816,1.017,13.177c0.037,0.251,0.102,0.481,0.186,0.693c-0.853,0.657-1.667,1.335-2.42,2.022
	c-2.926,2.668-8.204,4.074-10.241,7.561c-1.725,2.955-0.672,6.536,1.954,8.538c0.011,0.009,0.023,0.016,0.034,0.024
	c-0.011,0.005-0.022,0.011-0.033,0.016c-3.289,1.549-6.582,3.092-9.886,4.61c-4.275-4.817-10.719-8.387-15.865-12.198
	c-2.417-1.79-5.208-4.347-8.179-6.317c0.022-0.013,0.044-0.02,0.066-0.033c1.85-1.112,3.095-2.822,3.832-4.779
	c2.924-5.015,3.836-11.758,4.77-17.675C256.065,235.851,262.236,236.166,266.495,236.764z M240.271,274.548
	c1.603,1.037,3.2,2.082,4.814,3.102c-1.695-0.085-3.396-0.141-5.1-0.18C240.131,276.498,240.232,275.522,240.271,274.548z
	 M264.14,281.22c0.208-0.085,0.416-0.171,0.624-0.256c3.914-1.609,7.753-3.238,11.48-5.157c4.046-2.083,8.159-4.041,12.235-6.063
	c0.736-0.365,1.498-0.738,2.318-0.787c0.821-0.049,1.723,0.307,2.066,1.054c0.556,1.213-0.578,2.499-1.642,3.305
	c-2.294,1.737-4.788,3.21-7.415,4.386c-2.512,1.125-5.226,1.528-7.686,2.624c-5.898,2.627-11.722,5.329-17.921,6.987
	c-3.206,0.858-6.361,2.698-9.471,3.893c-3.141,1.208-6.316,2.331-9.518,3.367c-0.529,0.171-1.076,0.342-1.629,0.286
	s-1.116-0.399-1.252-0.937c-0.239-0.946,0.846-1.649,1.749-2.019C246.766,288.342,255.453,284.781,264.14,281.22z M357.985,223.612
	c-9.243-1.427-19.172-0.447-27.508,3.934c-0.031-0.584-0.173-1.194-0.461-1.814c-2.594-5.583-5.899-10.784-7.358-16.837
	c-1.26-5.228-1.43-10.85-4.022-15.641c-0.413-0.764-1.54-0.538-1.78,0.233c-1.832,5.884-0.273,12.318,0.607,18.263
	c0.944,6.379,1.646,12.746,4.898,18.457c0.464,0.814,1.045,1.358,1.674,1.716c-3.531,2.995-6.596,6.499-10.149,9.481
	c-2.264,1.9-4.726,3.156-7.293,4.13c-1.301-14.784,0.046-29.568,2.601-44.172c1.265-7.232,2.743-14.439,4.397-21.592
	c0.998-4.319,3.081-8.976,4.175-13.509c2.976,1.888,5.919,3.827,8.727,5.967c7.677,5.849,14.781,12.399,20.993,19.797
	c5.859,6.977,10.829,14.737,14.719,22.976c1.559,3.302,3.767,7.289,4.002,11.102C363.691,224.852,360.755,224.04,357.985,223.612z
	 M308.635,176.624c-2.025,7.633-3.696,15.399-5.192,23.151c-2.953,15.297-4.622,30.808-3.332,46.363
	c-1.969,0.26-3.931,0.856-5.818,1.697c-1.428-15.842,0.025-31.281,2.752-46.988c1.271-7.32,2.826-14.592,4.886-21.733
	c1.815-6.291,4.805-12.413,6.559-18.74c1.671,1.104,3.366,2.174,5.065,3.24C310.933,167.351,309.701,172.604,308.635,176.624z
	 M247.023,181.413c0.258,8.083,0.536,16.165,0.794,24.247c0.259,8.097-0.497,15.781-1.968,23.745
	c-0.449,2.432-1.101,4.958-1.759,7.516c-1.454-1.671-3.188-2.938-5.096-3.887c2.37-4.353,2.852-10.194,3.531-14.885
	c0.927-6.405,1.105-12.821,0.933-19.284c-0.171-6.393-0.693-12.781-1.814-19.082c-0.595-3.345-1.006-8.302-2.943-11.653
	c2.279-1.561,4.59-3.096,6.932-4.624C246.182,169.47,246.831,175.376,247.023,181.413z M222.774,265.584
	c-0.24,1.167-0.39,2.37-0.639,3.437c-0.66,2.83-1.799,5.909-2.196,8.916c-1.54,0.102-3.077,0.214-4.607,0.343
	c0.154-1.901,0.257-3.807,0.497-5.701c0.137-1.082,0.351-2.162,0.442-3.224c1.301-0.333,2.558-0.851,3.711-1.551
	C220.99,267.19,221.925,266.421,222.774,265.584z M213.157,286.496c9.767-1.138,19.435-1.547,29.173-1.74
	c-1.038,0.375-2.074,0.755-3.114,1.127c-3.566,1.276-9.146,3.103-9.65,7.565c-1.194,10.564,17.654,3.548,21.951,2.132
	c9.334-3.077,19.508-6.036,28.372-10.808c1.639,4.812,11.903,7.064,16.004,6.911c4.613-0.172,8.527-1.38,11.88-3.439
	c0.457,0.339,1.031,0.6,1.732,0.75c3.785,0.812,7.576,1.903,11.047,3.648c-21.011,7.406-42.778,14.359-65.267,13.844
	c-12.003-0.275-23.665-3.156-35.203-6.254c-5.104-1.37-10.232-2.838-15.01-5.13c-3.284-1.575-6.24-3.582-9.454-5.205
	C199.466,286.637,208.855,286.997,213.157,286.496z M296.185,317.229c0.026,6.233-0.13,12.461-0.32,18.69
	c-0.18,5.901-0.468,11.797-0.893,17.686c-0.262,3.632-0.689,7.249-1.069,10.869c-0.144,1.373,0.084,3.098-0.985,4.089
	c-0.827,0.766-2.302,0.909-3.364,1.048c-0.42,0.055-0.869,0.08-1.249-0.108c-0.857-0.426-0.895-1.613-0.811-2.567
	c0.257-2.91,0.187-5.617,0.187-8.519c0.072-6.279,0.159-12.557,0.217-18.836c0.052-5.628,0.005-11.256,0.059-16.884
	c0.042-4.337,0.597-9.27-0.277-13.677c2.862-0.639,5.709-1.358,8.547-2.12C295.768,310.278,296.171,313.867,296.185,317.229z
	 M280.741,365.052c0.072,1.411,0.308,3.751-0.792,4.879c-0.814,0.835-2.054,0.575-3.109,0.597c-4.186,0.09-8.375,0.549-12.564,0.689
	c-8.78,0.293-17.58,0.136-26.337-0.588c0.327-3.809,0.177-7.726,0.311-11.494c0.049-1.364,0.109-2.727,0.163-4.09
	c6.557,2.222,14.641,1.681,21.156,1.575c4.617-0.075,9.248-0.187,13.856-0.508c2.576-0.179,5.385-0.075,7.781-0.895
	c-0.011,0.737-0.023,1.474-0.034,2.211C281.133,359.966,280.612,362.512,280.741,365.052z M273.425,350.837
	c-4.298,0.303-8.607,0.394-12.912,0.512c-4.094,0.112-8.193,0.249-12.287,0.052c-3.219-0.155-6.418-0.754-9.625-1.034
	c0.113-2.612,0.236-5.223,0.36-7.834c6.175,2.489,14.203,1.616,20.485,1.633c6.842,0.019,15.195,1.138,21.947-1.022
	c-0.037,2.382-0.076,4.764-0.111,7.146C278.75,349.95,276.078,350.649,273.425,350.837z M259.446,339.196
	c-6.862,0.001-13.509-0.592-20.282-0.99c0.111-2.339,0.223-4.678,0.333-7.017c6.632,1.899,14.452,1.735,21.001,1.706
	c4.455-0.02,8.905-0.243,13.34-0.672c2.659-0.257,5.503-0.128,7.757-1.313c-0.056,2.593-0.089,5.157-0.13,7.675
	C274.234,338.348,266.706,339.195,259.446,339.196z M273.838,326.645c-4.116,0.416-8.249,0.661-12.385,0.721
	c-7.07,0.103-14.617-1.344-21.725-1.041c0.035-0.733,0.069-1.466,0.104-2.198c0.202-4.207,0.882-8.832,0.437-13.136
	c3.731,0.623,7.483,1.092,11.25,1.339c10.77,0.707,21.43-0.345,31.94-2.421c-1.065,5.311-1.506,10.875-1.725,16.414
	C279.225,325.448,276.791,326.347,273.838,326.645z M224.776,358.975c0.228-6.356,0.533-12.709,0.921-19.057
	c0.368-6.013,0.801-12.02,1.299-18.023c0.357-4.307,1.182-9.076,0.796-13.529c2.599,0.648,5.213,1.239,7.837,1.768
	c-1.044,3.849-1.124,8.122-1.471,11.994c-0.537,5.986-0.944,11.995-1.286,17.996c-0.323,5.666-0.566,11.338-0.791,17.009
	c-0.167,4.206-0.619,8.585-0.507,12.865c-2.355-0.274-4.704-0.58-7.038-0.946C225.069,365.75,224.667,362.008,224.776,358.975z
	 M214.729,304.736c3.051,0.919,6.127,1.808,9.224,2.639c-1.336,3.965-1.541,8.431-2.002,12.52c-0.141,1.254-0.269,2.51-0.396,3.767
	c-1.977-0.492-4.048-0.552-6.149-0.923c-3.105-0.548-6.178-1.299-9.189-2.234c-4.417-1.372-8.932-4.239-13.508-5.52
	c-0.037-2.336-0.071-4.672-0.089-7.008c-0.033-4.153-0.617-10.28,0.901-14.693C198.084,299.768,207.521,302.565,214.729,304.736z
	 M203.998,325.32c4.544,1.549,11.638,4.13,17.063,3.561c-0.218,2.474-0.406,4.95-0.596,7.426
	c-4.969-1.312-10.459-1.382-15.452-2.706c-4.08-1.082-8.026-2.557-12.013-3.911c-0.065-3.048-0.131-6.095-0.19-9.143
	C196.261,322.75,200.585,324.157,203.998,325.32z M204.619,338.413c4.73,1.276,10.383,2.917,15.493,2.675
	c-0.201,2.841-0.394,5.682-0.563,8.525c-1.085-0.545-2.421-0.59-4.034-0.868c-3.46-0.595-6.852-1.413-10.214-2.426
	c-3.076-0.927-6.088-2.021-8.942-3.51c-1.094-0.571-2.107-1.289-3.141-1.948c-0.036-2.15-0.082-4.3-0.125-6.45
	C196.782,336.157,200.793,337.381,204.619,338.413z M252.89,400.981c3.729-0.061,7.232,0.039,9.907-2.917
	c3.367-3.719,5.093-11.979,3.643-17.761c1.514-0.059,3.028-0.125,4.541-0.213c0.371-0.022,0.743-0.051,1.115-0.074
	c-0.677,2.444-0.678,5.253-0.77,7.582c-0.15,3.78-0.776,9.067,1.983,12.167c1.931,2.169,5.03,2.671,7.785,2.784
	c0.99,0.04,2.784-0.349,3.621,0.321c0.935,0.748,0.936,3.028,0.89,4.105c-0.056,1.307-0.368,2.59-0.387,3.933
	c-0.749-0.546-1.627-0.877-2.621-0.756c-5.794,0.703-9.96,3.563-13.378,7.461c-3.131-5.454-7.814-10.158-13.924-8.885
	c-1.441,0.3-3.105,1.094-4.695,2.197c-0.094-3.333-0.241-6.645-0.478-9.904C251.044,401.008,251.967,400.996,252.89,400.981z
	 M281.934,393.623c-0.089-0.024-0.174-0.051-0.255-0.082c-1.827-0.703-0.936-3.241-1.085-4.769
	c-0.193-1.974-0.614-3.918-0.807-5.892c-0.121-1.238-0.217-2.358-0.455-3.405c10.941-0.956,21.925-2.582,32.511-5.274
	c1.111-0.282,2.232-0.596,3.342-0.957c0.972,4.643,3.11,9.275,2.005,14.039c-0.545,2.35-0.686,2.618-2.868,3.327
	c-1.612,0.523-3.628,0.585-5.303,0.779c-3.512,0.408-7.042,0.71-10.564,1.013c-3.638,0.313-7.28,0.594-10.924,0.83
	C286.058,393.327,283.485,394.039,281.934,393.623z M302.424,401.196c1.835-0.167,4.009-0.243,6.282-0.396
	c-0.125,3.695,0.713,7.511,1.138,11.146c0.315,2.696,0.65,5.393,0.954,8.093c-3.309,0.676-6.899,1.082-10.246,1.092
	c-2.338,0.007-4.703-0.372-7.038-0.379c-0.109-2.839-0.218-5.678-0.352-8.516c-0.159-3.365-0.207-6.882-1.027-10.17
	C295.569,401.811,299.002,401.507,302.424,401.196z M302.017,426.86c2.805,0.048,6.502,0.077,9.346-1.149
	c0.027,0.328,0.063,0.655,0.088,0.983c0.383,4.946,0.414,9.909-0.099,14.848c-0.556,5.357-0.788,13.913-8.031,13.262
	c-6.402-0.576-8.201-4.928-8.594-10.664c-0.364-5.311-0.666-10.627-0.91-15.945c-0.039-0.845-0.068-1.69-0.103-2.535
	C296.346,426.59,299.325,426.814,302.017,426.86z M304.596,463.677c7.41-0.078,11.253-4.553,13.309-10.313
	c5.202,4.677,11.748,8.126,15.843,13.987c1.945,2.785,4.277,6.253,4.319,9.811c0.013,1.104-0.257,2.292-0.943,3.089
	c-0.335,0.389-0.769,0.686-1.318,0.833c-2.544,0.684-5.427,0.845-8.051,0.743c-12.62-0.487-20.82-8.695-27.131-18.54
	C301.948,463.555,303.285,463.69,304.596,463.677z M327.988,114.687c-1.11,2.897-2.444,5.729-3.954,8.469
	c-0.95-0.658-1.909-1.3-2.641-2.251c-1.904-2.473-1.791-5.658-0.772-8.521c1.471-4.134,4.501-7.419,2.383-11.965
	c-1.829-3.926-7.577-4.89-8.563-8.954c-0.923-3.807,1.925-6.324,4.284-8.922c4.612,1.572,10.656,3.935,13.043,7.988
	c0.651,1.105,0.868,2.477,0.875,3.916C331.085,101.261,330.538,108.034,327.988,114.687z M257.808,17.573
	c4.334-6.056,12.279-12.471,19.85-7.594c2.781,1.791,4.63,4.55,7.614,6.084c2.813,1.447,6.004,1.779,9.126,1.64
	c11.758-0.525,32.388-11.353,39.377,3.615c3.354,7.183,4.364,16.3,5.096,24.092c0.023,0.242,0.037,0.483,0.058,0.725
	c-4.941-3.35-11.524-5.409-16.59-7.045c-8.528-2.754-17.424-4.252-26.33-5.1c-9.871-0.94-19.864-1.12-29.752-0.34
	c-4.674,0.369-9.39,0.904-13.997,1.799c-1.644,0.319-3.392,0.629-5.065,1.114C250.187,30.01,253.608,23.442,257.808,17.573z
	 M242.584,47.401c0.654-1.633,1.325-3.26,2.008-4.883c2.45,0.108,4.947-0.513,7.401-0.917c4.744-0.781,9.463-1.495,14.263-1.845
	c9.033-0.658,18.136-0.49,27.157,0.281c8.367,0.715,16.688,2.084,24.742,4.496c4.126,1.236,8.165,2.733,12.043,4.615
	c3.046,1.479,5.893,3.655,9.077,4.813c0.034,3.326-0.038,6.648-0.1,9.978c-6.45-2.012-12.974-3.415-18.514-4.675
	c-20.773-4.725-41.805-9.186-63.146-10.167c-5.197-0.239-10.395-0.243-15.581,0.011C242.139,48.556,242.348,47.99,242.584,47.401z
	 M223.511,85.589c-0.12,0.478-0.223,0.965-0.32,1.455c-5.101-3.289-12.39-3.988-16.185-9.297
	c-6.911-9.668,7.837-15.537,14.989-17.166c19.938-4.541,41.196-2.992,61.203,0.239c9.904,1.6,19.725,3.661,29.517,5.837
	c9.598,2.133,19.318,4.177,28.505,7.757c7.851,3.06,21.476,9.618,18.891,20.298c-1.984,8.194-11.616,9.702-19.405,10.031
	c0.317-1.613,0.555-3.228,0.676-4.824c0.479-3.42,0.427-6.881-0.302-9.879c-1.433-5.894-6.869-9.832-11.976-12.483
	c-13.194-6.848-29.493-9.535-44.095-11.329c-14.564-1.789-30.736-2.115-44.821,2.618c-5.141,1.727-11.859,4.372-14.682,9.387
	C224.37,80.251,223.748,82.859,223.511,85.589z M230.468,141.877c3.312,4.914,7.568,9.147,12.743,12.401
	c-10.641,5.451-20.482,13.545-29.014,22.276C218.528,164.373,221.977,151.721,230.468,141.877z M194.97,142.495
	c6.835-0.14,13.696-0.181,20.52-0.606c1.842-0.115,4.172-0.125,6.538-0.312c-8.363,11.577-11.209,26.336-16.749,39.528
	c-3.422-5.895-6.313-12.062-8.529-18.544c-2.294-6.711-4.004-13.536-6.934-19.967C191.535,142.563,193.253,142.53,194.97,142.495z
	 M151.778,142.339c9.773,0.427,19.564,0.478,29.35,0.376c-6.101,15.567-12.58,30.972-19.519,46.183
	c-1.983-2.563-3.102-5.946-4.368-8.808l-5.985-13.522c-3.669-8.291-7.325-16.586-10.919-24.909
	C144.148,141.943,147.963,142.172,151.778,142.339z M109.899,137.99c7.364,1.256,14.782,2.226,22.225,2.958
	c-7.827,15.522-15.022,31.365-21.451,47.516c-6.743-18.273-13.142-36.695-20.539-54.703
	C96.646,135.49,103.261,136.858,109.899,137.99z M84.845,132.322c6.112,22.491,14.488,44.374,22.585,66.219
	c1.166,3.147,5.159,3.082,6.351,0c6.652-17.2,14.289-33.95,22.265-50.561c3.785,8.465,7.521,16.951,11.246,25.443
	c3.436,7.833,6.063,18.926,13.806,23.662c1.402,0.858,3.728,0.408,4.464-1.171c7.121-15.276,13.824-30.745,20.016-46.42
	c2.247,5.96,3.718,12.218,5.961,18.196c2.899,7.73,6.625,15.057,11.095,21.993c-3.911,4.96-7.513,10.168-10.735,15.597
	c-3.171,5.342-9.45,13.967-7.675,20.67c-6.165,6.384-9.938,15.215-6.153,23.839c1.955,4.454,5.866,8.217,10.356,10.069
	c2.039,0.841,4.659,1.545,6.832,0.967c2.87-0.764,5.322-1.109,6.516,1.866c1.066,2.657,3.556,5.189,6.357,6.011
	c-0.276,0.911-0.487,1.849-0.693,2.739c-0.583,2.525-1.057,5.105-1.238,7.697c-5.022,0.422-10.791,0.875-14.781,3.467
	c-4.267,2.772-5.645,7.822-6.295,12.556c-1.928,14.05-1.06,28.606-1.033,42.75c0.02,10.548-3.177,26.006,8.123,31.918
	c5.094,2.665,10.705,4.449,16.464,5.752c-1.097,3.133-0.933,6.42-0.986,9.918c-0.056,3.641-0.914,8.157,1.877,11.056
	c2.319,2.409,6.106,2.76,9.336,3.122c-0.706,2.108-0.892,4.642-0.94,7.083c-0.325-0.509-0.655-1.015-1.02-1.512
	c-3.192-4.344-8.408-9.292-14.269-8.681c-5.979,0.623-9.123,6.637-11.558,11.421c-2.079,4.084-3.749,8.331-5.031,12.7
	c-2.082-2.402-4.232-4.743-6.494-6.99c-3.294-3.272-6.981-6.933-11.776-7.664c-8.374-1.277-11.368,6.173-12.999,13.561
	c-3.14-1.047-6.504-1.57-9.7-0.579c-2.343,0.727-4.524,1.879-6.627,3.125c-1.996,1.183-3.889,2.376-5.463,4.111
	c-2.168,2.389-3.68,5.29-4.793,8.3c-0.994,2.691-1.363,6.082-4.307,7.412c-3.105,1.403-5.761-0.961-8.68-1.58
	c-1.373-0.291-2.384-0.311-2.888-1.771c-0.403-1.167-0.348-2.435-0.522-3.643c-0.257-1.784-0.515-3.567-0.772-5.35
	c-0.514-3.567-1.028-7.134-1.541-10.702c-1.386-9.642-2.762-19.285-4.115-28.932c-1.352-9.647-2.679-19.297-3.967-28.953
	c-1.287-9.655-2.534-19.316-3.724-28.984c-1.191-9.667-2.325-19.342-3.387-29.024c-5.055-46.079-7.147-92.446-12.504-138.484
	c-1.267-10.888-2.721-21.767-4.569-32.573c-0.129-0.753-0.278-1.528-0.442-2.308C79.42,130.728,82.141,131.56,84.845,132.322z
	 M77.814,328.349c-4.489-43.271-8.375-86.603-12.353-129.923c-1.956-21.303-5.078-42.852-5.813-64.229
	c-0.1-2.892,0.972-12.831,6.482-10.349c3.59,1.618,3.79,9.927,4.293,13.089c1.769,11.138,3.173,22.329,4.356,33.544
	c4.547,43.094,6.127,86.427,10.56,129.538c4.889,47.54,11.438,94.872,18.121,142.186c-4.815,2.323-8.399,6.206-10.641,10.854
	C88.382,411.436,82.136,370.003,77.814,328.349z M462.323,478.878c-2.069,15.046-28.664,13.017-39.214,13.691
	c-8.963,0.572-17.961,1.111-26.909,1.947c-22.332,0.476-44.636,1.851-66.944,2.976c-24.002,1.21-48.012,2.046-72.024,3.009
	c-48.018,1.927-96.041,2.682-144.088,1.367c-9.656-0.264-19.319-0.412-28.959-1.052c-7.97-0.529-15.783-1.645-23.679-2.792
	c-2.83-0.411-5.746-0.756-8.268-2.104c-0.686-0.366-1.354-0.824-1.762-1.486c-0.593-0.962-0.534-2.22-0.093-3.261
	c0.441-1.04,1.217-1.9,2.024-2.691c2.9-2.842,6.368-5.008,10.288-6.124c1.656-0.471,3.378-0.755,5.103-0.734
	c0.831,0.01,1.751,0.039,2.555,0.27c0.731,0.21,1.349,0.715,2.142,0.767c3.22,0.209,5.893-2.389,6.029-5.562
	c0.174-4.054,0.935-9.014,4.302-11.745c2.018-1.637,6.195-2.626,8.091-0.14c2.913,3.82,9.735,3.013,9.692-2.625
	c-0.064-8.369,7.09-14.768,15.526-12.811c5.604,1.3,11.327,6.983,16.831,1.732c2.238-2.135,2.816-5.551,3.775-8.339
	c1.078-3.133,2.421-6.329,4.556-8.91c2.838-3.432,9.686-6.205,12.403-1.176c2.247,4.159,9.819,3.63,10.677-1.395
	c0.655-3.835,1.241-7.679,1.848-11.522c0.405-2.564,1.626-4.048,4.054-2.266c5.638,4.14,10.627,10.227,14.967,15.66
	c2.009,2.516,6.903,1.175,7.437-1.964c0.697-4.095,1.654-8.119,3.038-12.04c1.321-3.741,3.157-9.465,6.019-12.368
	c7.632-7.74,15.664,20.282,15.566,24.607c-0.084,3.678-1.18,7.334-1.43,11.024c-0.041,0.608-0.309,8.211-0.696,8.276
	c-8.284,1.4-16.462,12.774-19.822,18.75c-2.584,4.595-5.568,10.64-2.352,15.667c2.84,4.441,8.995,5.967,13.873,6.463
	c12.493,1.271,24.438-5.32,32.378-14.621c3.811-4.465,6.62-9.839,8.17-15.498c1.184-4.323,1.423-8.821,1.735-13.27
	c0.302-4.294,0.735-8.568,0.995-12.866c0.167-2.761-0.269-5.445,0.21-8.216c0.41-2.37,1.172-4.849,2.418-6.922
	c0.836-1.391,2.94-3.072,4.677-2.495c3.159,1.05,5.192,8.388,5.865,11.023c1.107,4.331,6.874,4.693,9.134,1.194
	c1.465-2.269,2.969-4.564,4.908-6.464c2.273-2.226,7.961-7.56,8.049-1.321c0.083,5.883,0.242,11.754,0.537,17.633
	c0.154,3.072,0.017,6.262,0.668,9.279c0.679,3.147,2.07,6.089,3.441,8.982c3.121,6.582,5.806,13.586,10.597,19.178
	c7.884,9.201,19.891,13.339,31.826,12.434c4.237-0.321,10.772-0.816,13.14-4.968c2.376-4.166-0.217-10.364-2.007-14.265
	c-2.651-5.778-6.718-10.607-11.539-14.69c-3.603-3.051-7.891-7.351-12.585-9.224c0.499-3.108,0.716-6.26,0.861-9.081
	c0.297-5.768-0.185-11.492-0.818-17.212c0.042-0.052,0.089-0.092,0.13-0.147c2.969-4.025,7.599-10.992,13.389-10.387
	c6.5,0.679,1.75,9.371,1.93,13.567c0.203,4.711,5.296,6.336,8.702,3.605c2.181-1.749,11.574-6.616,13.01-2.544
	c0.477,1.352-0.465,3.699-0.802,5.008c-0.824,3.191-1.783,6.355-2.673,9.528c-1.576,5.616,5.127,8.573,9.107,5.301
	c3.752-3.085,8.959-8.613,14.027-4.886c3.235,2.379,4.368,7.444,4.729,11.213c0.423,4.412,5.411,6.956,8.88,3.678
	c2.626-2.481,5.15-5.06,7.89-7.418c1.905-1.64,5.722-5.475,8.588-4.754c2.564,0.645,2.472,5.05,3.346,7.26
	c1.126,2.848,3.154,5.493,6.219,6.36c6.539,1.85,10.883-5.846,15.664-8.875c2.48-1.571,5.095-2.251,7.604-0.336
	c3.257,2.486,2.987,6.441,2.527,10.056c-0.778,6.114,2.123,12.102,9.093,11.543c3.465-0.278,5.851-2.274,8.792,0.744
	C461.99,471.458,462.755,475.739,462.323,478.878z"/>
<path d="M300.624,119.555c-3.616-0.326-7.478-0.458-10.98-1.489c-2.36-0.695-4.802-2.833-6.426-4.599
	c-1.318-1.433-2.543-3.023-4.244-3.97c-3.332-1.854-12.143-0.006-10.043-6.47c0.896-2.757,3.582-3.459,6.04-4.185
	c1.233-0.364,2.932-0.918,2.999-2.475c0.172-3.975-5.866-2.644-7.89-1.809c-3.971,1.638-6.818,5.13-7.22,9.457
	c-0.234,2.517,0.469,4.875,1.887,6.746c-8.129,1.281-15.555,9.536-23.778,3.228c-2.109-1.618-4.361,1.335-3.325,3.346
	c-0.012,0.005-0.024,0.01-0.037,0.015c0.555,1.274,1.396,2.29,2.413,3.087c1.717,2.465,3.152,5.013,5.798,6.881
	c3.341,2.359,7.287,3.162,11.315,2.521c4.224-0.673,9.57-3.352,13.499-6.959c1.485,3.631,4.596,6.634,8.543,7.987
	c8.134,2.791,17.516-0.853,23.345-6.735C304.266,122.371,302.861,119.757,300.624,119.555z"/>
<path d="M257.082,102.243c2.544-1.561,3.563-4.822,2.863-7.631c-0.691-2.773-3.102-5.711-6.18-5.573
	c-5.768,0.259-8.711,8.692-4.42,12.589C251.458,103.548,254.68,103.717,257.082,102.243z"/>
<path d="M290.171,104.95c1.986,1.966,6.103,2.723,8.497,1.196c2.474-1.579,3.791-5.07,3.051-7.896
	c-0.744-2.839-3.926-5.692-6.947-5.515c-3.072,0.179-5.585,2.863-6.095,5.791c-0.142,0.814-0.116,1.658,0.054,2.468
	C288.609,102.394,289.001,103.792,290.171,104.95z"/>
<g>
</g>
<g>
</g>
<g>
</g>
<g>
</g>
<g>
</g>
<g>
</g>
<g>
</g>
<g>
</g>
<g>
</g>
<g>
</g>
<g>
</g>
<g>
</g>
<g>
</g>
<g>
</g>
<g>
</g>
</svg>
